<?xml version="1.0" standalone="no"?>
<!DOCTYPE svg PUBLIC "-//W3C//DTD SVG 1.1//EN" "http://www.w3.org/Graphics/SVG/1.1/DTD/svg11.dtd" >
<svg xmlns="http://www.w3.org/2000/svg" xmlns:xlink="http://www.w3.org/1999/xlink" version="1.1">
<metadata>
Created by FontForge 20150102 at Fri Jan 30 08:02:45 2015
 By uniteet7
The digitally encoded machine readable software for producing the Typefaces licensed to you is copyrighted (c) 1988, 1990, 1993, 2000, Linotype Library GmbH or its affiliated Linotype-Hell companies.  All rights reserved.  This software is now the property of Heidelberger Druckmaschinen AG and its licensors and may not be reproduced, used, displayed, modified, disclosed or transferred without the express written approval of Heidelberger Druckmaschinen AG.
</metadata>
<defs>
<font id="HelveticaLT45Light_1" horiz-adv-x="556" >
  <font-face 
    font-family="HelveticaLT45Light_1"
    font-weight="3"
    font-stretch="normal"
    units-per-em="1000"
    panose-1="2 11 4 4 2 0 2 2 2 4"
    ascent="800"
    descent="-200"
    x-height="516"
    cap-height="714"
    bbox="-166 -214 1050 967"
    underline-thickness="50"
    underline-position="-75"
    unicode-range="U+0020-FB02"
  />
<missing-glyph horiz-adv-x="278" 
 />
    <glyph glyph-name=".notdef" horiz-adv-x="278" 
 />
    <glyph glyph-name=".null" horiz-adv-x="0" 
 />
    <glyph glyph-name="nonmarkingreturn" horiz-adv-x="500" 
 />
    <glyph glyph-name="space" unicode=" " horiz-adv-x="278" 
 />
    <glyph glyph-name="space" unicode="&#xa0;" horiz-adv-x="278" 
 />
    <glyph glyph-name="exclam" unicode="!" horiz-adv-x="241" 
d="M102 178h38l15 323v213h-68v-213zM163 0v106h-84v-106h84z" />
    <glyph glyph-name="quotedbl" unicode="&#x22;" horiz-adv-x="370" 
d="M87 471h63v243h-63v-243zM220 471h63v243h-63v-243z" />
    <glyph glyph-name="numbersign" unicode="#" 
d="M497 268h-105l22 156h111v45h-105l31 222h-50l-31 -222h-141l31 222h-50l-31 -222h-116v-45h110l-22 -156h-116v-45h110l-31 -223h50l31 223h141l-31 -223h50l31 223h111v45zM364 424l-22 -156h-141l22 156h141z" />
    <glyph glyph-name="dollar" unicode="$" 
d="M296 326q29 -7 59 -17t54 -25.5t39.5 -39.5t15.5 -60q0 -39 -14.5 -66.5t-38 -45.5t-53.5 -26t-62 -8v288zM257 397q-28 7 -54.5 15t-47 22t-33 36t-12.5 57q0 39 11.5 67.5t32 46.5t47 26.5t56.5 8.5v-279zM29 228q4 -114 57.5 -172.5t170.5 -69.5v-86h39v85
q44 0 85.5 12.5t74 38t52 63t19.5 86.5q0 52 -20 87t-52.5 58t-74 36t-84.5 22v288q66 0 107 -44.5t42 -119.5h63q1 49 -15.5 89t-46 68.5t-68.5 44t-82 15.5v78h-39v-78q-44 0 -82 -13.5t-66.5 -39t-45 -61.5t-16.5 -81q0 -53 17 -87t45.5 -56t67 -35t80.5 -22v-296
q-79 9 -121.5 56t-43.5 134h-63z" />
    <glyph glyph-name="percent" unicode="%" horiz-adv-x="889" 
d="M228 661q31 0 51.5 -13.5t32.5 -35t17 -47t5 -49.5t-5 -49t-17 -46t-32.5 -34.5t-51.5 -13.5q-32 0 -52.5 13.5t-32.5 34.5t-16.5 46t-4.5 49t4.5 49.5t16.5 47t32.5 35t52.5 13.5zM190 -34h48l452 759h-47zM667 363q-42 0 -72.5 -14.5t-49.5 -40t-28 -60t-9 -74.5
t9 -74.5t28 -60t49.5 -40t72.5 -14.5t72.5 14.5t49.5 40t28 60t9 74.5t-9 74.5t-28 60t-49.5 40t-72.5 14.5zM667 318q31 0 51.5 -13.5t32.5 -35t17 -47t5 -49.5t-5 -49t-17 -46t-32.5 -34.5t-51.5 -13.5q-32 0 -52.5 13.5t-32.5 34.5t-16.5 46t-4.5 49t4.5 49.5t16.5 47
t32.5 35t52.5 13.5zM228 706q-42 0 -72.5 -14.5t-49.5 -40t-28 -60t-9 -74.5t9 -74.5t28 -60t49.5 -40t72.5 -14.5t72.5 14.5t49.5 40t28 60t9 74.5t-9 74.5t-28 60t-49.5 40t-72.5 14.5z" />
    <glyph glyph-name="ampersand" unicode="&#x26;" horiz-adv-x="611" 
d="M426 140q-30 -43 -72.5 -72.5t-96.5 -29.5q-30 0 -58 10t-49.5 29t-34.5 44.5t-13 57.5t13 58.5t34 48.5t47 39t52 31zM541 0h79l-120 145q25 46 33.5 93.5t8.5 77.5h-63q0 -41 -4 -67.5t-17 -52.5l-156 188q27 17 52 35.5t44.5 40.5t31.5 49t12 60t-12.5 59.5t-34 45.5
t-50 29.5t-61.5 10.5t-61.5 -10.5t-50 -29.5t-34 -45.5t-12.5 -59.5q0 -26 8.5 -49t21 -44t28 -40.5t30.5 -38.5q-30 -16 -61 -37t-56.5 -47t-41.5 -58t-16 -70q0 -48 16.5 -85.5t45.5 -63t68.5 -38.5t85.5 -13q63 0 117 29.5t93 78.5zM284 661q39 0 67 -23.5t28 -68.5
q0 -26 -10 -47.5t-26 -39t-35.5 -31.5t-38.5 -26q-12 14 -26 31.5t-26 36t-20 38t-8 38.5q0 45 28 68.5t67 23.5z" />
    <glyph glyph-name="quotesingle" unicode="'" horiz-adv-x="278" 
d="M108 471h63v243h-63v-243z" />
    <glyph glyph-name="parenleft" unicode="(" horiz-adv-x="241" 
d="M242 -191q-29 46 -52.5 99.5t-40 109.5t-26 113.5t-9.5 111.5q0 133 30.5 256t97.5 230h-50q-66 -102 -103.5 -218.5t-37.5 -244.5q0 -65 9.5 -124t27.5 -114.5t44.5 -109.5t59.5 -109h50z" />
    <glyph glyph-name="parenright" unicode=")" horiz-adv-x="241" 
d="M-1 729q28 -47 52 -100t40.5 -109t26 -113.5t9.5 -111.5q0 -133 -30.5 -256t-97.5 -230h50q66 102 103.5 218.5t37.5 244.5q0 65 -9.5 124t-27.5 114.5t-44.5 109.5t-59.5 109h-50z" />
    <glyph glyph-name="asterisk" unicode="*" horiz-adv-x="352" 
d="M142 556l-73 -98l32 -23l73 100l73 -100l32 23l-72 98l118 39l-15 37l-115 -41v123h-39v-123l-115 41l-14 -37z" />
    <glyph glyph-name="plus" unicode="+" horiz-adv-x="600" 
d="M274 278h-225v-53h225v-225h53v225h225v53h-225v225h-53v-225z" />
    <glyph glyph-name="comma" unicode="," horiz-adv-x="278" 
d="M97 106v-106h42q1 -12 -1.5 -26.5t-8.5 -28t-15 -24.5t-21 -15v-43q22 6 38.5 20t27.5 32.5t16.5 40t5.5 43.5v107h-84z" />
    <glyph glyph-name="hyphen" unicode="-" horiz-adv-x="370" 
d="M310 246v58h-250v-58h250z" />
    <glyph glyph-name="hyphen" unicode="&#xad;" horiz-adv-x="370" 
d="M310 246v58h-250v-58h250z" />
    <glyph glyph-name="period" unicode="." horiz-adv-x="278" 
d="M181 0v106h-84v-106h84z" />
    <glyph glyph-name="slash" unicode="/" horiz-adv-x="333" 
d="M41 -15l305 744h-51l-308 -744h54z" />
    <glyph glyph-name="zero" unicode="0" 
d="M278 653q60 0 96 -31t54.5 -77t24.5 -100t6 -99q0 -46 -6 -99.5t-24.5 -100t-54.5 -77.5t-96 -31t-96 31t-54.5 77.5t-24.5 100t-6 99.5q0 45 6 99t24.5 100t54.5 77t96 31zM278 706q-77 0 -124.5 -33.5t-74 -85.5t-36 -116.5t-9.5 -125.5t9.5 -125t36 -116t74 -85.5
t124.5 -33.5q76 0 124 33.5t74.5 85.5t36 116t9.5 126q0 61 -9.5 125t-36 116t-74.5 85.5t-124 33.5z" />
    <glyph glyph-name="one" unicode="1" 
d="M97 520h185v-520h63v700h-51q-7 -48 -23.5 -75t-41 -39.5t-58 -16t-74.5 -4.5v-45z" />
    <glyph glyph-name="two" unicode="2" 
d="M497 58h-389q6 35 30 64.5t55.5 54.5t65 45.5t59.5 37.5q34 22 66 47.5t56.5 55.5t39 66t14.5 80q0 49 -17 85.5t-46 61.5t-68.5 37.5t-85.5 12.5q-57 0 -99.5 -18.5t-70.5 -51.5t-41.5 -78.5t-12.5 -99.5h63q-1 39 7.5 74t27.5 62t49.5 43t73.5 16q32 0 60.5 -9.5
t50 -28t34 -45t12.5 -60.5q0 -42 -14.5 -72.5t-43.5 -59.5q-30 -30 -66 -55t-73 -49.5t-72 -51t-62.5 -58.5t-45 -72t-18.5 -92h461v58z" />
    <glyph glyph-name="three" unicode="3" 
d="M33 223q-4 -56 12.5 -100.5t49 -75t78 -46.5t99.5 -16q48 0 92 14t77 41t52.5 67t19.5 91q0 69 -37.5 115.5t-106.5 57.5v2q57 14 87.5 56t30.5 99q0 46 -18.5 80t-49 55.5t-69.5 32t-80 10.5q-51 0 -92 -17.5t-69.5 -48t-44 -73t-15.5 -91.5h63q-1 39 9 71.5t30.5 56
t50.5 36.5t69 13q31 0 59 -7.5t49 -24t33 -41.5t12 -59q0 -33 -13 -57t-33.5 -40t-46 -23t-49.5 -7h-53v-53h53q35 0 65.5 -9t53.5 -27.5t36 -46.5t13 -65q0 -38 -15 -66.5t-40 -48.5t-57.5 -30t-66.5 -10q-42 0 -75.5 13.5t-56 37.5t-34 58t-9.5 76h-63z" />
    <glyph glyph-name="four" unicode="4" 
d="M30 174h323v-174h58v174h105v53h-105v473h-57l-324 -465v-61zM87 227l264 381h2v-381h-266z" />
    <glyph glyph-name="five" unicode="5" 
d="M36 200q1 -50 19 -90t48.5 -67.5t72 -42.5t90.5 -15q50 0 94.5 18t77.5 49.5t52 75t19 94.5q0 53 -16.5 97.5t-47 76.5t-74 50t-97.5 18q-41 0 -81.5 -17t-66.5 -48l-2 2l45 232h306v58h-350l-68 -363h54q26 40 67.5 61.5t88.5 21.5q39 0 72 -14t56.5 -38.5t37 -57.5
t13.5 -72q0 -38 -12 -73t-35 -61t-55.5 -41.5t-72.5 -15.5q-36 0 -67 11.5t-54 33t-36.5 51.5t-14.5 66h-63z" />
    <glyph glyph-name="six" unicode="6" 
d="M290 403q40 0 71.5 -14.5t53 -39.5t33 -59t11.5 -72q0 -36 -12 -69t-34.5 -57.5t-53.5 -39t-68 -14.5q-46 0 -79 14t-54.5 38.5t-31.5 57.5t-10 70q0 39 11.5 72.5t34 58.5t55 39.5t73.5 14.5zM505 523q-11 92 -66.5 137.5t-148.5 45.5q-57 0 -98 -20t-68.5 -52
t-44 -71.5t-25.5 -78t-11.5 -72.5t-2.5 -55q0 -102 14.5 -173t44.5 -115.5t76 -64t110 -19.5q52 0 95.5 18t75 49.5t49 75t17.5 94.5t-16.5 94t-46.5 74t-73 48.5t-95 17.5q-60 0 -110.5 -32t-75.5 -84h-2q0 48 7 102.5t28 101.5t59 78t99 31t99.5 -36t46.5 -94h63z" />
    <glyph glyph-name="seven" unicode="7" 
d="M51 633h387q-73 -83 -124.5 -159t-86 -151.5t-53 -154.5t-24.5 -168h68q6 122 38.5 223.5t76 181t89.5 137t79 91.5v58h-450v-58z" />
    <glyph glyph-name="eight" unicode="8" 
d="M278 38q-37 0 -69.5 10t-56.5 29.5t-38 49.5t-14 69t14.5 67.5t38.5 47.5t56.5 28.5t68.5 8.5q35 1 67.5 -8.5t57 -29t39 -48t14.5 -66.5q0 -40 -14 -70t-38 -49.5t-56.5 -29t-69.5 -9.5zM490 531q0 45 -18.5 78t-49 54.5t-68.5 32t-77 10.5t-77 -10.5t-68 -32
t-48.5 -54.5t-18.5 -78q0 -58 29.5 -97.5t84.5 -56.5v-2q-65 -12 -102.5 -61t-39.5 -118q0 -53 19 -92.5t52 -66t77 -39.5t93 -13t93 13t77 39.5t52 66t19 92.5q0 71 -37.5 118t-105.5 61v2q54 16 84 56.5t30 97.5zM278 401q-28 -1 -55 6t-48 23t-34 41t-13 60q0 30 12.5 53
t33.5 38t48 23t56 8q31 0 58.5 -8t47.5 -23t31.5 -38t11.5 -53q0 -34 -12.5 -58.5t-33 -41t-47.5 -24t-56 -6.5z" />
    <glyph glyph-name="nine" unicode="9" 
d="M266 288q-40 0 -71.5 14.5t-53 39.5t-33 59t-11.5 72q0 36 12 69t34.5 57.5t53 39t68.5 14.5q46 0 79 -14t54.5 -38.5t31.5 -57.5t10 -70q0 -39 -11.5 -72.5t-34 -58.5t-55 -39.5t-73.5 -14.5zM51 168q11 -92 66.5 -137.5t148.5 -45.5q57 0 98 20t68.5 52t44 71.5
t25.5 78t11.5 72.5t2.5 55q0 102 -14.5 173t-44.5 115.5t-76 64t-110 19.5q-52 0 -95.5 -18t-75 -49.5t-49 -75t-17.5 -94.5t16.5 -94t46.5 -74t72.5 -48.5t95.5 -17.5q60 0 110.5 32t75.5 84h2q0 -48 -7 -102.5t-28 -101.5t-59 -78t-99 -31t-99.5 36t-46.5 94h-63z" />
    <glyph glyph-name="colon" unicode=":" horiz-adv-x="278" 
d="M181 394v106h-84v-106h84zM181 0v106h-84v-106h84z" />
    <glyph glyph-name="semicolon" unicode=";" horiz-adv-x="278" 
d="M97 106v-106h42q1 -12 -1.5 -26.5t-8.5 -28t-15 -24.5t-21 -15v-43q22 6 38.5 20t27.5 32.5t16.5 40t5.5 43.5v107h-84zM181 394v106h-84v-106h84z" />
    <glyph glyph-name="semicolon" unicode="&#x37e;" horiz-adv-x="278" 
d="M97 106v-106h42q1 -12 -1.5 -26.5t-8.5 -28t-15 -24.5t-21 -15v-43q22 6 38.5 20t27.5 32.5t16.5 40t5.5 43.5v107h-84zM181 394v106h-84v-106h84z" />
    <glyph glyph-name="less" unicode="&#x3c;" horiz-adv-x="600" 
d="M554 47l-446 206l446 206v55l-508 -234v-54l508 -234v55z" />
    <glyph glyph-name="equal" unicode="=" horiz-adv-x="600" 
d="M552 378h-503v-53h503v53zM552 181h-503v-53h503v53z" />
    <glyph glyph-name="greater" unicode="&#x3e;" horiz-adv-x="600" 
d="M46 47v-55l508 234v54l-508 234v-55l446 -206z" />
    <glyph glyph-name="question" unicode="?" horiz-adv-x="537" 
d="M117 494q-1 39 9 72t30 57.5t50.5 38.5t71.5 14q29 0 55 -10t45.5 -27.5t31 -42.5t11.5 -55q0 -39 -18.5 -71t-46.5 -58q-32 -29 -54 -52t-36 -47.5t-20 -56t-5 -77.5h63q1 46 4 70t12 41.5t27 34.5t50 49q38 36 62.5 75t24.5 95q0 43 -16 77.5t-44 58.5t-64.5 36.5
t-78.5 12.5q-54 0 -96.5 -17t-71 -47.5t-44 -74t-15.5 -96.5h63zM231 0h84v106h-84v-106z" />
    <glyph glyph-name="at" unicode="@" horiz-adv-x="800" 
d="M426 510q15 0 29 -8t25 -21t18 -29.5t7 -34.5q0 -33 -13 -74t-35.5 -76.5t-52.5 -60t-65 -24.5q-36 0 -59.5 26t-23.5 71q0 35 12 75.5t34.5 75t54 57.5t69.5 23zM614 544h-53l-25 -65q-17 45 -45 64.5t-61 19.5q-53 0 -97 -26t-75 -67t-48 -92.5t-17 -103.5q0 -30 9 -56
t26 -46t41.5 -31.5t55.5 -11.5q38 0 71 21t56 45h2q3 -33 22 -50t45 -17q42 0 83.5 22.5t74.5 62t53.5 92.5t20.5 113q0 69 -26 126t-71.5 98.5t-107.5 64t-134 22.5q-77 0 -143.5 -28.5t-116.5 -78t-78.5 -117t-28.5 -145.5q0 -79 27.5 -147.5t77 -119t117.5 -79.5t149 -29
q47 0 92.5 12.5t86 35.5t74 56t56.5 74h-51q-22 -31 -51 -55.5t-63 -42t-70.5 -26.5t-73.5 -9q-68 0 -126.5 25t-101 68.5t-66.5 102.5t-24 127q0 69 23 129.5t65 105t100 70.5t128 26q58 0 109.5 -18t90.5 -51.5t61.5 -82.5t22.5 -111q0 -42 -14 -86t-37 -80t-54 -59
t-64 -23q-12 0 -17.5 7t-6.5 18.5t2.5 26.5t8.5 31z" />
    <glyph glyph-name="A" unicode="A" horiz-adv-x="630" 
d="M-7 0h73l86 222h325l87 -222h73l-280 714h-76zM316 646l138 -366h-281z" />
    <glyph glyph-name="B" unicode="B" horiz-adv-x="667" 
d="M140 343h234q90 0 139 -34.5t49 -103.5q0 -43 -15 -71.5t-41 -45.5t-60 -23.5t-72 -6.5h-234v285zM72 0h302q87 0 138 22t77 54t33.5 66.5t7.5 60.5q0 70 -41 117.5t-110 56.5v2q28 6 50.5 21t39 36.5t25.5 48t9 54.5q0 50 -19 83.5t-50.5 54t-73 29t-86.5 8.5h-302v-714
zM140 656h234q161 0 161 -134q0 -25 -10 -47t-30 -38.5t-50 -26t-71 -9.5h-234v255z" />
    <glyph glyph-name="C" unicode="C" horiz-adv-x="704" 
d="M662 498q-7 56 -33.5 99t-66 72.5t-88 44.5t-99.5 15q-84 0 -147.5 -30.5t-105.5 -82t-63 -119t-21 -140.5t21 -140.5t63 -119t105.5 -82t147.5 -30.5q63 0 114.5 20t89.5 57.5t62 90.5t31 119h-68q-5 -48 -23 -89.5t-47 -72.5t-69.5 -49t-89.5 -18q-71 0 -122 27
t-83.5 71.5t-48 100.5t-15.5 115q0 58 15.5 114.5t48 101t83.5 71.5t122 27q39 0 74.5 -11.5t65 -33.5t50 -54.5t29.5 -73.5h68z" />
    <glyph glyph-name="D" unicode="D" horiz-adv-x="685" 
d="M140 656h145q77 0 132.5 -16.5t91.5 -52.5t53 -93t17 -137t-17 -137t-53 -93t-91.5 -52.5t-132.5 -16.5h-145v598zM72 0h247q162 4 245 92t83 265t-83 265t-245 92h-247v-714z" />
    <glyph glyph-name="E" unicode="E" horiz-adv-x="593" 
d="M72 0h498v58h-430v282h398v58h-398v258h425v58h-493v-714z" />
    <glyph glyph-name="F" unicode="F" horiz-adv-x="537" 
d="M72 0h68v340h342v58h-342v258h385v58h-453v-714z" />
    <glyph glyph-name="G" unicode="G" horiz-adv-x="741" 
d="M682 363h-303v-58h243q1 -57 -15 -105t-48 -83t-78.5 -54.5t-105.5 -19.5q-71 0 -122 27t-83.5 71.5t-48 100.5t-15.5 115q0 58 15.5 114.5t48 101t83.5 71.5t122 27q51 0 92 -16.5t70.5 -42.5t47 -57.5t20.5 -62.5h68q-10 58 -36.5 102.5t-66 74.5t-89.5 45t-106 15
q-84 0 -147.5 -30.5t-105.5 -82t-63 -119t-21 -140.5t21 -140.5t63 -119t105.5 -82t147.5 -30.5q39 0 75.5 8.5t68.5 26t58.5 45t44.5 65.5h2l9 -130h49v363z" />
    <glyph glyph-name="H" unicode="H" horiz-adv-x="704" 
d="M72 0h68v346h424v-346h68v714h-68v-310h-424v310h-68v-714z" />
    <glyph glyph-name="I" unicode="I" horiz-adv-x="222" 
d="M77 0h68v714h-68v-714z" />
    <glyph glyph-name="J" unicode="J" horiz-adv-x="500" 
d="M360 228q0 -49 -6 -84t-21 -57.5t-41 -33t-66 -10.5q-53 0 -80.5 20.5t-40 49.5t-14 61t-2.5 55h-68q0 -47 8 -90.5t30 -78t60.5 -55t100.5 -20.5q58 0 97.5 13t64 39.5t35.5 67t11 94.5v515h-68v-486z" />
    <glyph glyph-name="K" unicode="K" horiz-adv-x="648" 
d="M72 0h68v245l137 127l297 -372h88l-334 419l319 295h-92l-415 -384v384h-68v-714z" />
    <glyph glyph-name="L" unicode="L" horiz-adv-x="537" 
d="M72 0h468v58h-400v656h-68v-714z" />
    <glyph glyph-name="M" unicode="M" horiz-adv-x="833" 
d="M70 0h68v617h2l245 -617h64l244 617h2v-617h68v714h-100l-246 -626l-247 626h-100v-714z" />
    <glyph glyph-name="N" unicode="N" horiz-adv-x="704" 
d="M71 0h68v604h2l416 -604h76v714h-68v-604h-2l-416 604h-76v-714z" />
    <glyph glyph-name="O" unicode="O" horiz-adv-x="741" 
d="M34 357q0 -73 21 -140.5t63 -119t105.5 -82t147.5 -30.5t147 30.5t105 82t63 119t21 140.5t-21 140.5t-63 119t-105 82t-147 30.5t-147.5 -30.5t-105.5 -82t-63 -119t-21 -140.5zM102 357q0 58 15.5 114.5t48 101t83.5 71.5t122 27q70 0 121 -27t83.5 -71.5t48 -101
t15.5 -114.5q0 -59 -15.5 -115t-48 -100.5t-83.5 -71.5t-121 -27q-71 0 -122 27t-83.5 71.5t-48 100.5t-15.5 115z" />
    <glyph glyph-name="P" unicode="P" horiz-adv-x="630" 
d="M72 0h68v306h249q48 0 87 13.5t67 40t43 64.5t15 86t-15 86t-43 64.5t-67 40t-87 13.5h-317v-714zM140 656h234q71 0 115 -36t44 -110t-44 -110t-115 -36h-234v292z" />
    <glyph glyph-name="Q" unicode="Q" horiz-adv-x="741" 
d="M444 192l-35 -43l94 -71q-55 -35 -132 -35q-71 0 -122 27t-83.5 71.5t-48 100.5t-15.5 115q0 58 15.5 114.5t48 101t83.5 71.5t122 27q70 0 121 -27t83.5 -71.5t48 -101t15.5 -114.5q0 -69 -21.5 -134t-69.5 -110zM701 -4l-102 78q54 52 81 126t27 157q0 73 -21 140.5
t-63 119t-105 82t-147 30.5t-147.5 -30.5t-105.5 -82t-63 -119t-21 -140.5t21 -140.5t63 -119t105.5 -82t147.5 -30.5q56 0 102 13.5t83 39.5l111 -84z" />
    <glyph glyph-name="R" unicode="R" horiz-adv-x="667" 
d="M72 0h68v317h258q48 2 75.5 -16t42 -47.5t19 -67.5t6.5 -75q1 -11 1.5 -26t2.5 -30.5t5.5 -30t9.5 -24.5h75q-11 13 -17.5 36.5t-9.5 50t-4 52.5t-2 44q-2 32 -8.5 59.5t-21 48.5t-37.5 34.5t-58 18.5v2q69 14 104 64t35 118q0 48 -17.5 83.5t-47 58t-69 33.5t-83.5 11
h-327v-714zM140 656h254q77 0 115.5 -38t38.5 -104q0 -33 -12.5 -58.5t-33.5 -43.5t-49 -27.5t-59 -9.5h-254v281z" />
    <glyph glyph-name="S" unicode="S" horiz-adv-x="630" 
d="M36 235q-3 -65 17.5 -112.5t58.5 -78t92 -45t117 -14.5t108 11.5t75.5 30.5t48 42t27 45.5t12 42.5t2.5 32q0 44 -14.5 75t-40 52.5t-59 36t-71.5 24.5l-174 43q-22 5 -41.5 13.5t-34.5 21t-23.5 31t-8.5 43.5q0 40 15 67t39.5 43.5t57 24t67.5 7.5q38 0 72.5 -10.5
t61.5 -31t43 -51t18 -71.5h68q0 55 -21 96.5t-57.5 69.5t-84.5 42t-101 14q-75 0 -123 -21.5t-75.5 -52.5t-37.5 -66t-10 -61q0 -42 13.5 -71t35.5 -49t51 -32t61 -20l159 -39q25 -6 51 -15.5t47.5 -24.5t35 -37t13.5 -52q0 -39 -19 -66.5t-47.5 -45t-61.5 -25.5t-61 -8
q-49 0 -92 9.5t-74.5 31.5t-49.5 59t-17 92h-68z" />
    <glyph glyph-name="T" unicode="T" 
d="M-5 656h249v-656h68v656h249v58h-566v-58z" />
    <glyph glyph-name="U" unicode="U" horiz-adv-x="685" 
d="M65 257q0 -55 15.5 -104.5t49 -86.5t86 -59t126.5 -22q75 0 127.5 22t86 59t49 86.5t15.5 104.5v457h-68v-442q0 -62 -14 -105.5t-41 -71t-66.5 -40t-88.5 -12.5t-88 12.5t-66 40t-41 71t-14 105.5v442h-68v-457z" />
    <glyph glyph-name="V" unicode="V" horiz-adv-x="593" 
d="M258 0h79l265 714h-72l-230 -639h-2l-232 639h-73z" />
    <glyph glyph-name="W" unicode="W" horiz-adv-x="907" 
d="M198 0h74l180 639h2l181 -639h72l197 714h-68l-163 -625h-2l-175 625h-85l-174 -625h-2l-162 625h-73z" />
    <glyph glyph-name="X" unicode="X" horiz-adv-x="574" 
d="M245 368l-257 -368h77l220 315l217 -315h82l-258 366l244 348h-76l-209 -299l-202 299h-80z" />
    <glyph glyph-name="Y" unicode="Y" horiz-adv-x="611" 
d="M271 0h68v294l282 420h-81l-234 -362l-235 362h-81l281 -420v-294z" />
    <glyph glyph-name="Z" unicode="Z" horiz-adv-x="574" 
d="M37 656h438l-470 -596v-60h556v58h-480l470 596v60h-514v-58z" />
    <glyph glyph-name="bracketleft" unicode="[" horiz-adv-x="241" 
d="M237 -191v53h-98v814h98v53h-161v-920h161z" />
    <glyph glyph-name="backslash" unicode="\" horiz-adv-x="333" 
d="M346 -15l-308 744h-51l305 -744h54z" />
    <glyph glyph-name="bracketright" unicode="]" horiz-adv-x="241" 
d="M4 729v-53h98v-814h-98v-53h161v920h-161z" />
    <glyph glyph-name="asciicircum" unicode="^" horiz-adv-x="600" 
d="M102 238l197 390l200 -390h57l-230 453h-52l-230 -453h58z" />
    <glyph glyph-name="underscore" unicode="_" horiz-adv-x="500" 
d="M500 -125v50h-500v-50h500z" />
    <glyph glyph-name="grave" unicode="`" horiz-adv-x="185" 
d="M101 588h51l-105 141h-78z" />
    <glyph glyph-name="a" unicode="a" horiz-adv-x="519" 
d="M390 200q0 -38 -14.5 -68t-39 -51t-57.5 -32t-69 -11q-22 0 -43 7t-37 20.5t-25.5 32t-9.5 42.5q0 38 22.5 58.5t57.5 31.5t77.5 16.5t82.5 12.5q13 2 30 7t23 16h2v-82zM117 358q2 63 40.5 91.5t97.5 28.5q28 0 52.5 -4.5t43 -16.5t29 -32.5t10.5 -52.5q0 -21 -5.5 -34
t-15.5 -20t-25.5 -10.5t-34.5 -5.5q-51 -6 -100.5 -12.5t-89 -22.5t-63.5 -46.5t-24 -84.5q0 -39 13.5 -67.5t37 -47t55 -27.5t67.5 -9q37 0 65 7t49.5 20.5t39 33t34.5 44.5h2q0 -20 2.5 -36.5t10.5 -28.5t22.5 -18.5t38.5 -6.5q13 0 21.5 1t19.5 3v53q-10 -4 -20 -4
q-37 0 -37 38v274q0 52 -17 84.5t-44 50.5t-61 24.5t-68 6.5q-89 0 -146.5 -41t-62.5 -132h63z" />
    <glyph glyph-name="b" unicode="b" horiz-adv-x="574" 
d="M473 258q0 -40 -9.5 -79.5t-30 -70.5t-52.5 -50.5t-77 -19.5q-50 0 -84.5 19.5t-56 50.5t-31 70.5t-9.5 79.5t9.5 79.5t31 70.5t56 50.5t84.5 19.5q45 0 77 -19.5t52.5 -50.5t30 -70.5t9.5 -79.5zM60 0h58v98h2q22 -53 71.5 -83t112.5 -30q59 0 102.5 22t72.5 59.5t43 87
t14 104.5t-14 104.5t-43 87t-72.5 59.5t-102.5 22q-29 0 -56.5 -7.5t-51.5 -21.5t-42.5 -35t-28.5 -49h-2v296h-63v-714z" />
    <glyph glyph-name="c" unicode="c" horiz-adv-x="519" 
d="M487 354q-11 89 -68.5 133t-140.5 44q-59 0 -104.5 -22t-76.5 -59t-47 -87t-16 -105q0 -56 16 -105.5t47 -86.5t76.5 -59t104.5 -22q87 0 143.5 53t69.5 147h-63q-3 -32 -16 -59t-33 -46.5t-46 -30.5t-55 -11q-45 0 -79 19t-56.5 50t-34 70.5t-11.5 80.5t11.5 80.5
t34 70.5t56.5 50t79 19q62 0 97.5 -33t48.5 -91h63z" />
    <glyph glyph-name="d" unicode="d" horiz-adv-x="574" 
d="M101 258q0 40 9.5 79.5t30 70.5t52.5 50.5t77 19.5q50 0 84.5 -19.5t56 -50.5t31 -70.5t9.5 -79.5t-9.5 -79.5t-31 -70.5t-56 -50.5t-84.5 -19.5q-45 0 -77 19.5t-52.5 50.5t-30 70.5t-9.5 79.5zM514 714h-63v-296h-2q-10 28 -28.5 49t-42.5 35t-51.5 21.5t-56.5 7.5
q-59 0 -102.5 -22t-72.5 -59.5t-43 -87t-14 -104.5t14 -104.5t43 -87t72.5 -59.5t102.5 -22q28 0 56.5 8t53.5 23t44.5 36t29.5 46h2v-98h58v714z" />
    <glyph glyph-name="e" unicode="e" horiz-adv-x="519" 
d="M494 241q2 54 -10 106.5t-39.5 93t-71.5 65.5t-106 25t-106 -23.5t-72 -62t-41.5 -87.5t-13.5 -100q0 -55 13.5 -104.5t41.5 -87t72 -59.5t106 -22q98 0 151.5 48.5t73.5 136.5h-63q-15 -59 -54 -95.5t-108 -36.5q-45 0 -77.5 19t-52.5 48t-30 65t-10 71h397zM97 294
q4 35 16.5 68.5t33.5 59t51 41t69 15.5q38 0 68 -15.5t51 -41t32.5 -58.5t12.5 -69h-334z" />
    <glyph glyph-name="f" unicode="f" horiz-adv-x="259" 
d="M259 516h-102v45q0 21 1 39t7.5 31.5t20.5 21.5t40 8q11 0 22 -1.5t24 -3.5v54q-15 2 -27 3t-26 1q-38 0 -62.5 -11t-38.5 -31t-19 -48t-5 -61v-47h-88v-53h88v-463h63v463h102v53z" />
    <glyph glyph-name="g" unicode="g" 
d="M267 59q-44 0 -76 17.5t-53 46t-31 65.5t-10 76q0 40 9.5 78.5t30.5 68.5t53 48.5t77 18.5t76.5 -19t51.5 -50t29 -69t9 -76q0 -39 -10.5 -76t-31.5 -65.5t-52 -46t-72 -17.5zM496 516h-63v-89h-2q-19 43 -63 73.5t-101 30.5q-56 0 -99.5 -20.5t-73 -56t-45 -83
t-15.5 -100.5q0 -55 13 -103.5t41.5 -84.5t72.5 -56.5t106 -20.5q56 0 99 29t65 77h2v-70q0 -95 -39 -145t-127 -50q-26 0 -51 5.5t-45.5 17.5t-35 31.5t-19.5 48.5h-63q3 -41 22.5 -70.5t49 -48.5t66.5 -28t76 -9q63 0 106.5 17t70.5 49t39.5 78t12.5 104v474z" />
    <glyph glyph-name="h" unicode="h" horiz-adv-x="537" 
d="M59 0h63v301q1 38 12 70.5t32 56t50.5 37t67.5 13.5t63.5 -12t40.5 -33t21 -49.5t6 -61.5v-322h63v332q0 46 -9 83t-31 62.5t-58.5 39.5t-90.5 14q-27 0 -53 -7.5t-48 -21t-38.5 -33t-25.5 -42.5h-2v287h-63v-714z" />
    <glyph glyph-name="i" unicode="i" horiz-adv-x="185" 
d="M61 0h63v516h-63v-516zM61 613h63v101h-63v-101z" />
    <glyph glyph-name="j" unicode="j" horiz-adv-x="185" 
d="M61 -63q0 -32 -10 -53.5t-47 -21.5q-8 -1 -17 -0.5t-17 1.5v-52q11 0 22 -1t22 -1q33 0 54.5 11.5t34 31t17 45.5t4.5 55v564h-63v-579zM61 613h63v101h-63v-101z" />
    <glyph glyph-name="k" unicode="k" horiz-adv-x="500" 
d="M60 0h63v196l102 85l204 -281h79l-235 325l220 191h-84l-286 -250v448h-63v-714z" />
    <glyph glyph-name="l" unicode="l" horiz-adv-x="185" 
d="M61 0h63v714h-63v-714z" />
    <glyph glyph-name="m" unicode="m" horiz-adv-x="833" 
d="M60 0h63v288q0 40 9 75t27.5 60.5t47.5 40t70 14.5q30 0 51 -10t33.5 -27.5t18 -41t5.5 -49.5v-350h63v292q0 36 6.5 69.5t22.5 59.5t43 41.5t68 15.5q68 0 95 -33.5t27 -97.5v-347h63v350q0 181 -171 181q-51 0 -96 -25t-68 -76q-14 51 -55.5 76t-92.5 25
q-62 0 -103 -27.5t-66 -74.5h-3v87h-58v-516z" />
    <glyph glyph-name="n" unicode="n" horiz-adv-x="537" 
d="M59 0h63v301q1 38 12 70.5t32 56t50.5 37t67.5 13.5t63.5 -12t40.5 -33t21 -49.5t6 -61.5v-322h63v332q0 46 -9 83t-31 62.5t-58.5 39.5t-90.5 14q-27 0 -53 -7.5t-48 -21t-38.5 -33t-25.5 -42.5h-2v89h-63v-516z" />
    <glyph glyph-name="o" unicode="o" 
d="M278 531q-59 0 -104.5 -22t-76.5 -59t-47 -87t-16 -105q0 -56 16 -105.5t47 -86.5t76.5 -59t104.5 -22t104.5 22t76.5 59t47 86.5t16 105.5q0 55 -16 105t-47 87t-76.5 59t-104.5 22zM278 478q45 0 79 -19t56.5 -50t34 -70.5t11.5 -80.5t-11.5 -80.5t-34 -70.5t-56.5 -50
t-79 -19t-79 19t-56.5 50t-34 70.5t-11.5 80.5t11.5 80.5t34 70.5t56.5 50t79 19z" />
    <glyph glyph-name="p" unicode="p" horiz-adv-x="574" 
d="M473 258q0 -40 -9.5 -79.5t-30 -70.5t-52.5 -50.5t-77 -19.5q-50 0 -84.5 19.5t-56 50.5t-31 70.5t-9.5 79.5q0 44 8.5 84t29.5 70t56 48t87 18q45 0 77 -19.5t52.5 -50.5t30 -70.5t9.5 -79.5zM60 -191h63v289h2q10 -28 28.5 -49t42.5 -35.5t51.5 -21.5t56.5 -7
q59 0 102.5 22t72.5 59.5t43 87t14 104.5t-14 104.5t-43 87t-72.5 59.5t-102.5 22q-63 0 -112.5 -30t-71.5 -83h-2v98h-58v-707z" />
    <glyph glyph-name="q" unicode="q" horiz-adv-x="574" 
d="M101 258q0 40 9.5 79.5t30 70.5t52.5 50.5t77 19.5q50 0 84.5 -19.5t56 -50.5t31 -70.5t9.5 -79.5t-9.5 -79.5t-31 -70.5t-56 -50.5t-84.5 -19.5q-45 0 -77 19.5t-52.5 50.5t-30 70.5t-9.5 79.5zM514 516h-58v-98h-2q-10 25 -29.5 46t-44.5 36t-53.5 23t-56.5 8
q-59 0 -102.5 -22t-72.5 -59.5t-43 -87t-14 -104.5t14 -104.5t43 -87t72.5 -59.5t102.5 -22q29 0 56.5 7t51.5 21.5t42.5 35.5t28.5 49h2v-289h63v707z" />
    <glyph glyph-name="r" unicode="r" horiz-adv-x="315" 
d="M60 0h63v275q0 40 14 75t39.5 60t60.5 38.5t78 11.5v63q-70 3 -120.5 -31t-74.5 -97h-2v121h-58v-516z" />
    <glyph glyph-name="s" unicode="s" horiz-adv-x="481" 
d="M432 365q-2 42 -17 73t-40.5 52t-59 31t-72.5 10q-34 0 -68.5 -8t-62.5 -25t-45.5 -45t-17.5 -67q0 -33 11 -55.5t30.5 -38t45.5 -26t57 -18.5l81 -18q21 -5 41.5 -12t36.5 -17.5t25.5 -26.5t9.5 -38q0 -27 -13.5 -45.5t-34.5 -30.5t-46 -17t-47 -5q-63 0 -105.5 32.5
t-46.5 96.5h-63q8 -95 64.5 -138.5t147.5 -43.5q36 0 73 8.5t66.5 27t48.5 48t19 71.5q0 34 -13 59t-33.5 42t-47 27.5t-53.5 14.5l-84 19q-16 4 -35 10.5t-35 16.5t-26.5 24.5t-10.5 35.5q0 25 11 42t29 27.5t39.5 15t42.5 4.5q27 0 51 -6.5t42.5 -20.5t29.5 -35.5
t12 -50.5h63z" />
    <glyph glyph-name="t" unicode="t" horiz-adv-x="296" 
d="M160 671h-63v-155h-90v-53h90v-353q-1 -66 24 -91t88 -25q14 0 28 1t28 1v54q-27 -3 -54 -3q-34 2 -42.5 19.5t-8.5 48.5v348h105v53h-105v155z" />
    <glyph glyph-name="u" unicode="u" horiz-adv-x="537" 
d="M478 516h-63v-271q0 -39 -9 -76.5t-28 -66.5t-48.5 -46.5t-69.5 -17.5q-75 0 -105.5 36t-32.5 106v336h-63v-335q0 -45 10 -81.5t31.5 -62t56 -39t83.5 -13.5q58 0 105.5 28t72.5 80h2v-93h58v516z" />
    <glyph glyph-name="v" unicode="v" horiz-adv-x="463" 
d="M201 0h67l193 516h-65l-160 -453h-2l-162 453h-70z" />
    <glyph glyph-name="w" unicode="w" horiz-adv-x="741" 
d="M174 0h69l126 434h2l127 -434h69l166 516h-67l-132 -442h-2l-126 442h-71l-126 -442h-2l-132 442h-67z" />
    <glyph glyph-name="x" unicode="x" horiz-adv-x="481" 
d="M1 0h78l159 217l162 -217h80l-201 269l186 247h-79l-144 -196l-147 196h-79l185 -248z" />
    <glyph glyph-name="y" unicode="y" horiz-adv-x="463" 
d="M208 2l-22 -59q-8 -18 -15 -33t-17 -25.5t-23.5 -16.5t-34.5 -6q-11 0 -21.5 1.5t-21.5 3.5v-53q8 -3 18.5 -3.5t29.5 -1.5q30 0 49.5 5.5t34.5 18t26.5 34t25.5 54.5l224 595h-63l-159 -440l-170 440h-67z" />
    <glyph glyph-name="z" unicode="z" horiz-adv-x="463" 
d="M432 471v45h-394v-53h314l-337 -412v-51h431v53h-355z" />
    <glyph glyph-name="braceleft" unicode="{" horiz-adv-x="333" 
d="M293 -191v53h-20q-15 0 -25.5 8.5t-17 22.5t-9.5 33t-3 39v141q0 41 -9 70.5t-21 49t-23.5 29.5t-16.5 13v2q5 3 16.5 13t23.5 29.5t21 49t9 70.5v141q0 20 3 38.5t9.5 33t17 23t25.5 8.5h20v53h-50q-42 0 -65 -34t-23 -91v-149q0 -30 -3 -59t-11 -51.5t-22 -36
t-36 -13.5v-53q22 0 36 -13.5t22 -36t11 -51.5t3 -59v-148q0 -57 23 -91t65 -34h50z" />
    <glyph glyph-name="bar" unicode="|" horiz-adv-x="222" 
d="M85 -214h53v1000h-53v-1000z" />
    <glyph glyph-name="braceright" unicode="}" horiz-adv-x="333" 
d="M40 729v-53h20q15 0 25.5 -8.5t17 -23t9.5 -33t3 -38.5v-141q0 -41 9 -70.5t21 -49t23.5 -29.5t16.5 -13v-2q-5 -3 -16.5 -13t-23.5 -29.5t-21 -49t-9 -70.5v-141q0 -20 -3 -39t-9.5 -33t-17 -22.5t-25.5 -8.5h-20v-53h50q42 0 65 34t23 91v149q0 30 3 59t11 51.5t22 36
t36 13.5v53q-22 0 -36 13.5t-22 36t-11 51.5t-3 59v148q0 57 -23 91t-65 34h-50z" />
    <glyph glyph-name="asciitilde" unicode="~" horiz-adv-x="600" 
d="M495 315q-17 -26 -37.5 -47.5t-50.5 -21.5q-19 0 -44 10t-54 23q-28 12 -57.5 22t-57.5 10q-25 0 -44.5 -7.5t-34.5 -19.5t-26.5 -27.5t-19.5 -31.5l36 -36q12 26 31.5 47.5t52.5 21.5q29 0 55 -10t52 -22q26 -13 53 -23t57 -10q23 0 41.5 7.5t33 19.5t27 27.5t23.5 31.5
z" />
    <glyph glyph-name="uni20AC" 
d="M557 635q-35 44 -83.5 60.5t-102.5 16.5q-62 0 -111 -22t-84.5 -60t-58.5 -88.5t-33 -107.5h-51l-18 -45h64q-1 -10 -1.5 -19.5t-0.5 -19.5v-10t1 -10h-44l-19 -45h66q7 -60 27.5 -114.5t55.5 -96t85 -66t116 -24.5q55 0 95 15t81 51v77q-20 -20 -38.5 -36t-39 -27
t-44 -17t-52.5 -6q-53 0 -92 20.5t-65.5 55t-42 78t-21.5 90.5h282l19 45h-304q-1 4 -1 8v8q0 22 3 43h321l18 45h-333q8 43 25 83t44 71t64 49t86 18q52 0 89.5 -20t70.5 -59z" />
    <glyph glyph-name="uni20AC" unicode="&#x20ac;" 
d="M557 635q-35 44 -83.5 60.5t-102.5 16.5q-62 0 -111 -22t-84.5 -60t-58.5 -88.5t-33 -107.5h-51l-18 -45h64q-1 -10 -1.5 -19.5t-0.5 -19.5v-10t1 -10h-44l-19 -45h66q7 -60 27.5 -114.5t55.5 -96t85 -66t116 -24.5q55 0 95 15t81 51v77q-20 -20 -38.5 -36t-39 -27
t-44 -17t-52.5 -6q-53 0 -92 20.5t-65.5 55t-42 78t-21.5 90.5h282l19 45h-304q-1 4 -1 8v8q0 22 3 43h321l18 45h-333q8 43 25 83t44 71t64 49t86 18q52 0 89.5 -20t70.5 -59z" />
    <glyph glyph-name="quotesinglbase" horiz-adv-x="278" 
d="M99 106v-106h42q1 -12 -1.5 -26.5t-8.5 -28t-15 -24.5t-22 -15v-43q23 6 39.5 20t27.5 32.5t16.5 40t5.5 43.5v107h-84z" />
    <glyph glyph-name="quotesinglbase" unicode="&#x201a;" horiz-adv-x="278" 
d="M99 106v-106h42q1 -12 -1.5 -26.5t-8.5 -28t-15 -24.5t-22 -15v-43q23 6 39.5 20t27.5 32.5t16.5 40t5.5 43.5v107h-84z" />
    <glyph glyph-name="florin" 
d="M7 -168q25 -5 45 -5q57 -1 90 19t51.5 53t27 76t17.5 88l61 323h113l9 53h-113l14 67q6 25 12 52.5t17 50t30 37t51 15.5q11 0 23 -1t23 -3l12 52q-16 2 -31 3.5t-31 1.5q-49 0 -78.5 -17.5t-47 -46t-26.5 -66t-18 -76.5l-13 -69h-101l-9 -53h100l-75 -394
q-4 -18 -10.5 -37.5t-17 -36t-26.5 -27t-38 -11.5q-27 0 -52 6z" />
    <glyph glyph-name="florin" unicode="&#x192;" 
d="M7 -168q25 -5 45 -5q57 -1 90 19t51.5 53t27 76t17.5 88l61 323h113l9 53h-113l14 67q6 25 12 52.5t17 50t30 37t51 15.5q11 0 23 -1t23 -3l12 52q-16 2 -31 3.5t-31 1.5q-49 0 -78.5 -17.5t-47 -46t-26.5 -66t-18 -76.5l-13 -69h-101l-9 -53h100l-75 -394
q-4 -18 -10.5 -37.5t-17 -36t-26.5 -27t-38 -11.5q-27 0 -52 6z" />
    <glyph glyph-name="quotedblbase" horiz-adv-x="370" 
d="M222 106v-106h42q1 -12 -1.5 -26.5t-8.5 -28t-15 -24.5t-22 -15v-43q23 6 39.5 20t27.5 32.5t16.5 40t5.5 43.5v107h-84zM68 106v-106h42q1 -12 -1.5 -26.5t-8.5 -28t-15 -24.5t-22 -15v-43q23 6 39.5 20t27.5 32.5t16.5 40t5.5 43.5v107h-84z" />
    <glyph glyph-name="quotedblbase" unicode="&#x201e;" horiz-adv-x="370" 
d="M222 106v-106h42q1 -12 -1.5 -26.5t-8.5 -28t-15 -24.5t-22 -15v-43q23 6 39.5 20t27.5 32.5t16.5 40t5.5 43.5v107h-84zM68 106v-106h42q1 -12 -1.5 -26.5t-8.5 -28t-15 -24.5t-22 -15v-43q23 6 39.5 20t27.5 32.5t16.5 40t5.5 43.5v107h-84z" />
    <glyph glyph-name="ellipsis" unicode="&#x85;" horiz-adv-x="1000" 
d="M209 0v106h-84v-106h84zM542 0v106h-84v-106h84zM875 0v106h-84v-106h84z" />
    <glyph glyph-name="ellipsis" unicode="&#x2026;" horiz-adv-x="1000" 
d="M209 0v106h-84v-106h84zM542 0v106h-84v-106h84zM875 0v106h-84v-106h84z" />
    <glyph glyph-name="dagger" 
d="M246 440v-591h63v591h199v53h-199v221h-63v-221h-198v-53h198z" />
    <glyph glyph-name="dagger" unicode="&#x2020;" 
d="M246 440v-591h63v591h199v53h-199v221h-63v-221h-198v-53h198z" />
    <glyph glyph-name="daggerdbl" 
d="M246 47v-198h63v198h199v53h-199v363h199v53h-199v198h-63v-198h-198v-53h198v-363h-198v-53h198z" />
    <glyph glyph-name="daggerdbl" unicode="&#x2021;" 
d="M246 47v-198h63v198h199v53h-199v363h199v53h-199v198h-63v-198h-198v-53h198v-363h-198v-53h198z" />
    <glyph glyph-name="circumflex" horiz-adv-x="185" 
d="M127 729h-69l-114 -141h58l88 102l86 -102h65z" />
    <glyph glyph-name="circumflex" unicode="&#x2c6;" horiz-adv-x="185" 
d="M127 729h-69l-114 -141h58l88 102l86 -102h65z" />
    <glyph glyph-name="perthousand" horiz-adv-x="1111" 
d="M129 -34h48l452 759h-47zM547 323q-40 0 -68.5 -13t-46.5 -35.5t-26 -53.5t-8 -67t8 -67t26 -53.5t46.5 -35.5t68.5 -13t68.5 13t46.5 35.5t26 53.5t8 67t-8 67t-26 53.5t-46.5 35.5t-68.5 13zM547 278q30 0 48.5 -11t29 -29t14.5 -40t4 -44t-4 -44t-14.5 -40t-29 -29
t-48.5 -11t-49 11t-29.5 29t-14 40t-3.5 44t3.5 44t14 40t29.5 29t49 11zM901 323q-40 0 -68.5 -13t-46.5 -35.5t-26 -53.5t-8 -67t8 -67t26 -53.5t46.5 -35.5t68.5 -13t68.5 13t46.5 35.5t26 53.5t8 67t-8 67t-26 53.5t-46.5 35.5t-68.5 13zM901 278q30 0 48.5 -11t29 -29
t14.5 -40t4 -44t-4 -44t-14.5 -40t-29 -29t-48.5 -11t-49 11t-29.5 29t-14 40t-3.5 44t3.5 44t14 40t29.5 29t49 11zM214 706q-40 0 -68.5 -13t-46.5 -35.5t-26 -53.5t-8 -67t8 -67t26 -53.5t46.5 -35.5t68.5 -13t68.5 13t46.5 35.5t26 53.5t8 67t-8 67t-26 53.5t-46.5 35.5
t-68.5 13zM214 661q30 0 48.5 -11t29 -29t14.5 -40t4 -44t-4 -44t-14.5 -40t-29 -29t-48.5 -11t-49 11t-29.5 29t-14 40t-3.5 44t3.5 44t14 40t29.5 29t49 11z" />
    <glyph glyph-name="perthousand" unicode="&#x2030;" horiz-adv-x="1111" 
d="M129 -34h48l452 759h-47zM547 323q-40 0 -68.5 -13t-46.5 -35.5t-26 -53.5t-8 -67t8 -67t26 -53.5t46.5 -35.5t68.5 -13t68.5 13t46.5 35.5t26 53.5t8 67t-8 67t-26 53.5t-46.5 35.5t-68.5 13zM547 278q30 0 48.5 -11t29 -29t14.5 -40t4 -44t-4 -44t-14.5 -40t-29 -29
t-48.5 -11t-49 11t-29.5 29t-14 40t-3.5 44t3.5 44t14 40t29.5 29t49 11zM901 323q-40 0 -68.5 -13t-46.5 -35.5t-26 -53.5t-8 -67t8 -67t26 -53.5t46.5 -35.5t68.5 -13t68.5 13t46.5 35.5t26 53.5t8 67t-8 67t-26 53.5t-46.5 35.5t-68.5 13zM901 278q30 0 48.5 -11t29 -29
t14.5 -40t4 -44t-4 -44t-14.5 -40t-29 -29t-48.5 -11t-49 11t-29.5 29t-14 40t-3.5 44t3.5 44t14 40t29.5 29t49 11zM214 706q-40 0 -68.5 -13t-46.5 -35.5t-26 -53.5t-8 -67t8 -67t26 -53.5t46.5 -35.5t68.5 -13t68.5 13t46.5 35.5t26 53.5t8 67t-8 67t-26 53.5t-46.5 35.5
t-68.5 13zM214 661q30 0 48.5 -11t29 -29t14.5 -40t4 -44t-4 -44t-14.5 -40t-29 -29t-48.5 -11t-49 11t-29.5 29t-14 40t-3.5 44t3.5 44t14 40t29.5 29t49 11z" />
    <glyph glyph-name="Scaron" horiz-adv-x="630" 
d="M36 235q-3 -65 17.5 -112.5t58.5 -78t92 -45t117 -14.5t108 11.5t75.5 30.5t48 42t27 45.5t12 42.5t2.5 32q0 44 -14.5 75t-40 52.5t-59 36t-71.5 24.5l-174 43q-22 5 -41.5 13.5t-34.5 21t-23.5 31t-8.5 43.5q0 40 15 67t39.5 43.5t57 24t67.5 7.5q38 0 72.5 -10.5
t61.5 -31t43 -51t18 -71.5h68q0 55 -21 96.5t-57.5 69.5t-84.5 42t-101 14q-75 0 -123 -21.5t-75.5 -52.5t-37.5 -66t-10 -61q0 -42 13.5 -71t35.5 -49t51 -32t61 -20l159 -39q25 -6 51 -15.5t47.5 -24.5t35 -37t13.5 -52q0 -39 -19 -66.5t-47.5 -45t-61.5 -25.5t-61 -8
q-49 0 -92 9.5t-74.5 31.5t-49.5 59t-17 92h-68zM281 771h69l114 141h-58l-88 -102l-86 102h-65z" />
    <glyph glyph-name="Scaron" unicode="&#x160;" horiz-adv-x="630" 
d="M36 235q-3 -65 17.5 -112.5t58.5 -78t92 -45t117 -14.5t108 11.5t75.5 30.5t48 42t27 45.5t12 42.5t2.5 32q0 44 -14.5 75t-40 52.5t-59 36t-71.5 24.5l-174 43q-22 5 -41.5 13.5t-34.5 21t-23.5 31t-8.5 43.5q0 40 15 67t39.5 43.5t57 24t67.5 7.5q38 0 72.5 -10.5
t61.5 -31t43 -51t18 -71.5h68q0 55 -21 96.5t-57.5 69.5t-84.5 42t-101 14q-75 0 -123 -21.5t-75.5 -52.5t-37.5 -66t-10 -61q0 -42 13.5 -71t35.5 -49t51 -32t61 -20l159 -39q25 -6 51 -15.5t47.5 -24.5t35 -37t13.5 -52q0 -39 -19 -66.5t-47.5 -45t-61.5 -25.5t-61 -8
q-49 0 -92 9.5t-74.5 31.5t-49.5 59t-17 92h-68zM281 771h69l114 141h-58l-88 -102l-86 102h-65z" />
    <glyph glyph-name="guilsinglleft" horiz-adv-x="259" 
d="M186 119v67l-94 89l94 89v67l-133 -125v-62z" />
    <glyph glyph-name="guilsinglleft" unicode="&#x2039;" horiz-adv-x="259" 
d="M186 119v67l-94 89l94 89v67l-133 -125v-62z" />
    <glyph glyph-name="OE" horiz-adv-x="1074" 
d="M569 177q-1 -15 -4.5 -29t-13.5 -26q-35 -45 -78 -62t-98 -17q-65 0 -115.5 25.5t-85 68.5t-52 100t-17.5 120t17.5 120t52 100t85 68.5t115.5 25.5q25 0 54.5 -6.5t56.5 -18.5t48 -30t30 -41q3 -12 4 -27t1 -39v-332zM637 656h406v58h-474v-59q-35 39 -86 56.5
t-108 17.5q-80 0 -142.5 -30t-106 -81t-66.5 -118.5t-23 -142.5t23 -142.5t66.5 -118.5t106 -81t142.5 -30q26 0 53 5.5t52.5 16t48 26.5t40.5 37v-70h477v58h-409v282h368v58h-368v258z" />
    <glyph glyph-name="OE" unicode="&#x152;" horiz-adv-x="1074" 
d="M569 177q-1 -15 -4.5 -29t-13.5 -26q-35 -45 -78 -62t-98 -17q-65 0 -115.5 25.5t-85 68.5t-52 100t-17.5 120t17.5 120t52 100t85 68.5t115.5 25.5q25 0 54.5 -6.5t56.5 -18.5t48 -30t30 -41q3 -12 4 -27t1 -39v-332zM637 656h406v58h-474v-59q-35 39 -86 56.5
t-108 17.5q-80 0 -142.5 -30t-106 -81t-66.5 -118.5t-23 -142.5t23 -142.5t66.5 -118.5t106 -81t142.5 -30q26 0 53 5.5t52.5 16t48 26.5t40.5 37v-70h477v58h-409v282h368v58h-368v258z" />
    <glyph glyph-name="quoteleft" horiz-adv-x="278" 
d="M179 471v106h-42q-1 12 1.5 26.5t8.5 28t15 24t22 15.5v43q-23 -6 -39.5 -20t-27.5 -32.5t-16.5 -40t-5.5 -43.5v-107h84z" />
    <glyph glyph-name="quoteleft" unicode="&#x2018;" horiz-adv-x="278" 
d="M179 471v106h-42q-1 12 1.5 26.5t8.5 28t15 24t22 15.5v43q-23 -6 -39.5 -20t-27.5 -32.5t-16.5 -40t-5.5 -43.5v-107h84z" />
    <glyph glyph-name="quoteright" horiz-adv-x="278" 
d="M99 714v-106h42q1 -12 -1.5 -26.5t-8.5 -28t-15 -24.5t-22 -15v-43q23 6 39.5 20t27.5 32.5t16.5 40t5.5 43.5v107h-84z" />
    <glyph glyph-name="quoteright" unicode="&#x2019;" horiz-adv-x="278" 
d="M99 714v-106h42q1 -12 -1.5 -26.5t-8.5 -28t-15 -24.5t-22 -15v-43q23 6 39.5 20t27.5 32.5t16.5 40t5.5 43.5v107h-84z" />
    <glyph glyph-name="quotedblleft" horiz-adv-x="370" 
d="M302 471v106h-42q-1 12 1.5 26.5t8.5 28t15 24t22 15.5v43q-23 -6 -39.5 -20t-27.5 -32.5t-16.5 -40t-5.5 -43.5v-107h84zM148 471v106h-42q-1 12 1.5 26.5t8.5 28t15 24t22 15.5v43q-23 -6 -39.5 -20t-27.5 -32.5t-16.5 -40t-5.5 -43.5v-107h84z" />
    <glyph glyph-name="quotedblleft" unicode="&#x201c;" horiz-adv-x="370" 
d="M302 471v106h-42q-1 12 1.5 26.5t8.5 28t15 24t22 15.5v43q-23 -6 -39.5 -20t-27.5 -32.5t-16.5 -40t-5.5 -43.5v-107h84zM148 471v106h-42q-1 12 1.5 26.5t8.5 28t15 24t22 15.5v43q-23 -6 -39.5 -20t-27.5 -32.5t-16.5 -40t-5.5 -43.5v-107h84z" />
    <glyph glyph-name="quotedblright" horiz-adv-x="370" 
d="M222 714v-106h42q1 -12 -1.5 -26.5t-8.5 -28t-15 -24.5t-22 -15v-43q23 6 39.5 20t27.5 32.5t16.5 40t5.5 43.5v107h-84zM68 714v-106h42q1 -12 -1.5 -26.5t-8.5 -28t-15 -24.5t-22 -15v-43q23 6 39.5 20t27.5 32.5t16.5 40t5.5 43.5v107h-84z" />
    <glyph glyph-name="quotedblright" unicode="&#x201d;" horiz-adv-x="370" 
d="M222 714v-106h42q1 -12 -1.5 -26.5t-8.5 -28t-15 -24.5t-22 -15v-43q23 6 39.5 20t27.5 32.5t16.5 40t5.5 43.5v107h-84zM68 714v-106h42q1 -12 -1.5 -26.5t-8.5 -28t-15 -24.5t-22 -15v-43q23 6 39.5 20t27.5 32.5t16.5 40t5.5 43.5v107h-84z" />
    <glyph glyph-name="bullet" horiz-adv-x="500" 
d="M72 357q0 -37 14 -69.5t38 -57t56.5 -38.5t69.5 -14t69.5 14t57 38.5t38.5 57t14 69.5t-14 69.5t-38.5 56.5t-57 38t-69.5 14t-69.5 -14t-56.5 -38t-38 -56.5t-14 -69.5z" />
    <glyph glyph-name="bullet" unicode="&#x2022;" horiz-adv-x="500" 
d="M72 357q0 -37 14 -69.5t38 -57t56.5 -38.5t69.5 -14t69.5 14t57 38.5t38.5 57t14 69.5t-14 69.5t-38.5 56.5t-57 38t-69.5 14t-69.5 -14t-56.5 -38t-38 -56.5t-14 -69.5z" />
    <glyph glyph-name="endash" horiz-adv-x="500" 
d="M500 246v58h-500v-58h500z" />
    <glyph glyph-name="endash" unicode="&#x2013;" horiz-adv-x="500" 
d="M500 246v58h-500v-58h500z" />
    <glyph glyph-name="emdash" horiz-adv-x="1000" 
d="M870 246v58h-740v-58h740z" />
    <glyph glyph-name="emdash" unicode="&#x2014;" horiz-adv-x="1000" 
d="M870 246v58h-740v-58h740z" />
    <glyph glyph-name="tilde" horiz-adv-x="185" 
d="M211 708q-6 -20 -17.5 -34t-34.5 -14q-14 0 -28.5 7t-31.5 15t-35 15t-40 7q-20 0 -35.5 -8.5t-26.5 -22t-18 -30.5t-9 -35h39q0 25 15 38t38 13q13 0 28 -8t32 -16t36 -15t39 -7q19 0 34.5 8.5t26 22t17 30.5t9.5 34h-38z" />
    <glyph glyph-name="tilde" unicode="&#x2dc;" horiz-adv-x="185" 
d="M211 708q-6 -20 -17.5 -34t-34.5 -14q-14 0 -28.5 7t-31.5 15t-35 15t-40 7q-20 0 -35.5 -8.5t-26.5 -22t-18 -30.5t-9 -35h39q0 25 15 38t38 13q13 0 28 -8t32 -16t36 -15t39 -7q19 0 34.5 8.5t26 22t17 30.5t9.5 34h-38z" />
    <glyph glyph-name="trademark" horiz-adv-x="990" 
d="M269 302v367h134v45h-321v-45h134v-367h53zM529 302v364h2l146 -364h30l146 364h2v-364h53v412h-85l-129 -334l-133 334h-85v-412h53z" />
    <glyph glyph-name="trademark" unicode="&#x2122;" horiz-adv-x="990" 
d="M269 302v367h134v45h-321v-45h134v-367h53zM529 302v364h2l146 -364h30l146 364h2v-364h53v412h-85l-129 -334l-133 334h-85v-412h53z" />
    <glyph glyph-name="scaron" horiz-adv-x="481" 
d="M432 365q-2 42 -17 73t-40.5 52t-59 31t-72.5 10q-34 0 -68.5 -8t-62.5 -25t-45.5 -45t-17.5 -67q0 -33 11 -55.5t30.5 -38t45.5 -26t57 -18.5l81 -18q21 -5 41.5 -12t36.5 -17.5t25.5 -26.5t9.5 -38q0 -27 -13.5 -45.5t-34.5 -30.5t-46 -17t-47 -5q-63 0 -105.5 32.5
t-46.5 96.5h-63q8 -95 64.5 -138.5t147.5 -43.5q36 0 73 8.5t66.5 27t48.5 48t19 71.5q0 34 -13 59t-33.5 42t-47 27.5t-53.5 14.5l-84 19q-16 4 -35 10.5t-35 16.5t-26.5 24.5t-10.5 35.5q0 25 11 42t29 27.5t39.5 15t42.5 4.5q27 0 51 -6.5t42.5 -20.5t29.5 -35.5
t12 -50.5h63zM206 588h69l114 141h-58l-88 -102l-86 102h-65z" />
    <glyph glyph-name="scaron" unicode="&#x161;" horiz-adv-x="481" 
d="M432 365q-2 42 -17 73t-40.5 52t-59 31t-72.5 10q-34 0 -68.5 -8t-62.5 -25t-45.5 -45t-17.5 -67q0 -33 11 -55.5t30.5 -38t45.5 -26t57 -18.5l81 -18q21 -5 41.5 -12t36.5 -17.5t25.5 -26.5t9.5 -38q0 -27 -13.5 -45.5t-34.5 -30.5t-46 -17t-47 -5q-63 0 -105.5 32.5
t-46.5 96.5h-63q8 -95 64.5 -138.5t147.5 -43.5q36 0 73 8.5t66.5 27t48.5 48t19 71.5q0 34 -13 59t-33.5 42t-47 27.5t-53.5 14.5l-84 19q-16 4 -35 10.5t-35 16.5t-26.5 24.5t-10.5 35.5q0 25 11 42t29 27.5t39.5 15t42.5 4.5q27 0 51 -6.5t42.5 -20.5t29.5 -35.5
t12 -50.5h63zM206 588h69l114 141h-58l-88 -102l-86 102h-65z" />
    <glyph glyph-name="guilsinglright" horiz-adv-x="259" 
d="M73 119l133 125v62l-133 125v-67l94 -89l-94 -89v-67z" />
    <glyph glyph-name="guilsinglright" unicode="&#x203a;" horiz-adv-x="259" 
d="M73 119l133 125v62l-133 125v-67l94 -89l-94 -89v-67z" />
    <glyph glyph-name="oe" horiz-adv-x="889" 
d="M265 478q46 0 75.5 -19t46.5 -50t23 -69.5t6 -77.5t-6 -79t-22.5 -72.5t-46 -52.5t-77.5 -20q-45 0 -76 18t-51 47.5t-29 66.5t-9 76q0 40 7.5 81.5t26.5 75t51 54.5t81 21zM799 166q-17 -60 -55 -94t-104 -34q-42 0 -72.5 17.5t-50 46t-29 65t-9.5 74.5h384
q0 143 -53 216.5t-168 73.5q-69 0 -119 -35t-71 -92h-2q-20 65 -69 96t-115 31q-59 0 -102 -22.5t-71.5 -60.5t-42.5 -87t-14 -103t12.5 -103.5t40 -87t70.5 -60t104 -22.5q67 0 116.5 32.5t68.5 98.5h2q8 -32 26 -56.5t42.5 -41t54 -25t61.5 -8.5q89 0 148 47t80 134h-63z
M479 294q0 37 10 70t30.5 58.5t50.5 40.5t70 15q39 0 69 -15t50 -40.5t30.5 -59t10.5 -69.5h-321z" />
    <glyph glyph-name="oe" unicode="&#x153;" horiz-adv-x="889" 
d="M265 478q46 0 75.5 -19t46.5 -50t23 -69.5t6 -77.5t-6 -79t-22.5 -72.5t-46 -52.5t-77.5 -20q-45 0 -76 18t-51 47.5t-29 66.5t-9 76q0 40 7.5 81.5t26.5 75t51 54.5t81 21zM799 166q-17 -60 -55 -94t-104 -34q-42 0 -72.5 17.5t-50 46t-29 65t-9.5 74.5h384
q0 143 -53 216.5t-168 73.5q-69 0 -119 -35t-71 -92h-2q-20 65 -69 96t-115 31q-59 0 -102 -22.5t-71.5 -60.5t-42.5 -87t-14 -103t12.5 -103.5t40 -87t70.5 -60t104 -22.5q67 0 116.5 32.5t68.5 98.5h2q8 -32 26 -56.5t42.5 -41t54 -25t61.5 -8.5q89 0 148 47t80 134h-63z
M479 294q0 37 10 70t30.5 58.5t50.5 40.5t70 15q39 0 69 -15t50 -40.5t30.5 -59t10.5 -69.5h-321z" />
    <glyph glyph-name="Ydieresis" horiz-adv-x="611" 
d="M271 0h68v294l282 420h-81l-234 -362l-235 362h-81l281 -420v-294zM428 788v101h-68v-101h68zM251 788v101h-68v-101h68z" />
    <glyph glyph-name="Ydieresis" unicode="&#x178;" horiz-adv-x="611" 
d="M271 0h68v294l282 420h-81l-234 -362l-235 362h-81l281 -420v-294zM428 788v101h-68v-101h68zM251 788v101h-68v-101h68z" />
    <glyph glyph-name="exclamdown" unicode="&#xa1;" horiz-adv-x="241" 
d="M140 338h-38l-15 -323v-206h68v206zM79 516v-106h84v106h-84z" />
    <glyph glyph-name="cent" unicode="&#xa2;" 
d="M270 39q-39 6 -67.5 27t-47.5 51t-28.5 66.5t-9.5 74.5t9.5 74.5t28.5 66.5t47.5 50.5t67.5 26.5v-437zM507 354q-5 43 -22 75.5t-43 54.5t-60 34t-73 13v87h-39v-89q-53 -5 -93 -28.5t-67.5 -60t-41.5 -83.5t-14 -99t14 -99t41.5 -84t67.5 -60.5t93 -28.5v-102h39v101
q82 3 136 56t66 144h-63q-3 -31 -15 -57t-30.5 -45.5t-42.5 -31.5t-51 -13v440q57 -2 90 -35t45 -89h63z" />
    <glyph glyph-name="sterling" unicode="&#xa3;" 
d="M46 330h81q12 -20 20 -51t8 -54q0 -30 -9 -56t-24.5 -49t-36 -43t-42.5 -38l36 -54q15 9 27 16.5t24 13t26 8.5t33 3q31 0 54.5 -7t46.5 -15t48.5 -13.5t57.5 -5.5q45 0 79 16t67 45l-32 48q-21 -23 -52 -39.5t-63 -16.5q-25 0 -45 6.5t-41 14.5q-20 8 -44.5 14t-57.5 6
q-26 0 -50.5 -9.5t-46.5 -20.5l-2 2q21 16 40.5 36t35 43t25 49t9.5 54q0 21 -6.5 50t-17.5 47h142v32h-160q-9 22 -19.5 39.5t-19.5 35t-14.5 37t-5.5 45.5q0 40 14 69.5t37 49t52.5 29t61.5 9.5q42 0 73.5 -13.5t53 -38t32 -58.5t10.5 -74h63q2 111 -59.5 174t-172.5 63
q-43 0 -84 -12t-73 -37.5t-51.5 -64t-19.5 -92.5q0 -45 16 -84.5t39 -76.5h-63v-32z" />
    <glyph glyph-name="currency" unicode="&#xa4;" 
d="M29 136l38 -38l56 56q32 -26 71.5 -41t84.5 -15t83.5 14.5t69.5 40.5l55 -55l38 38l-54 54q26 32 41 71.5t15 84.5t-15 84.5t-41 71.5l54 54l-38 38l-55 -55q-32 26 -70.5 40.5t-82.5 14.5q-45 0 -85 -15t-71 -41l-56 56l-38 -38l56 -56q-26 -32 -40 -71t-14 -83
t14.5 -82.5t40.5 -70.5zM94 346q0 40 14.5 75t39.5 60.5t59 40t72 14.5t72 -14.5t59 -40t39.5 -60.5t14.5 -75t-14.5 -75t-39.5 -60.5t-59 -40t-72 -14.5t-72 14.5t-59 40t-39.5 60.5t-14.5 75z" />
    <glyph glyph-name="yen" unicode="&#xa5;" 
d="M110 304h129l6 -10v-73h-135v-45h135v-176h63v176h137v45h-137v73l6 10h131v45h-109l211 365h-69l-201 -365l-199 365h-72l210 -365h-106v-45z" />
    <glyph glyph-name="brokenbar" unicode="&#xa6;" horiz-adv-x="222" 
d="M85 -89h53v250h-53v-250zM85 411h53v250h-53v-250z" />
    <glyph glyph-name="section" unicode="&#xa7;" 
d="M448 230q0 -42 -24 -67.5t-60 -40.5q-32 22 -76 44.5t-84 48t-68 56t-28 68.5q0 42 23 67.5t59 40.5q32 -22 76 -44t84.5 -47t69 -55.5t28.5 -70.5zM511 231q0 49 -25.5 84t-63.5 62t-83 49t-83 45.5t-63.5 50.5t-25.5 65q0 24 9.5 40.5t25.5 27.5t36 16t41 5
q26 0 48 -10t37.5 -26.5t23.5 -39.5t7 -48h63q0 86 -50 131.5t-135 45.5q-31 0 -61.5 -9.5t-54.5 -27.5t-38.5 -45t-14.5 -61q0 -65 50 -109q-22 -9 -42 -22.5t-35 -31.5t-23.5 -39.5t-8.5 -46.5q0 -49 25.5 -84t63.5 -62t83 -49t83 -45.5t63.5 -50.5t25.5 -65
q0 -24 -9.5 -40.5t-25.5 -27.5t-36 -16t-41 -5q-26 0 -48 10t-37.5 26.5t-23.5 39t-7 48.5h-63q0 -86 50 -131.5t135 -45.5q31 0 61.5 9.5t54.5 27.5t38.5 44.5t14.5 61.5q0 65 -50 109q22 9 42 22.5t35 31.5t23.5 39.5t8.5 46.5z" />
    <glyph glyph-name="dieresis" unicode="&#xa8;" horiz-adv-x="185" 
d="M215 605v101h-68v-101h68zM38 605v101h-68v-101h68z" />
    <glyph glyph-name="copyright" unicode="&#xa9;" horiz-adv-x="800" 
d="M772 357q0 78 -28.5 146t-78.5 118.5t-118 79t-147 28.5t-147 -28.5t-118 -79t-78.5 -118.5t-28.5 -146t28.5 -146t78.5 -118.5t118 -79t147 -28.5t147 28.5t118 79t78.5 118.5t28.5 146zM714 357q0 -67 -24 -125t-66 -101t-99.5 -68t-124.5 -25q-68 0 -125.5 25
t-99.5 68t-65.5 101t-23.5 125t23.5 125t65.5 101t99.5 68t125.5 25q67 0 124.5 -25t99.5 -68t66 -101t24 -125zM594 435q-5 36 -21 64.5t-41 47.5t-56.5 29t-66.5 10q-51 0 -91.5 -17t-68 -48t-42.5 -73t-15 -91q0 -50 15 -91.5t42.5 -72.5t68 -48t91.5 -17q35 0 66.5 10
t56.5 29t41 47.5t21 64.5h-51q-9 -45 -43.5 -75.5t-89.5 -30.5q-41 0 -71.5 14t-51.5 39t-31.5 58.5t-10.5 72.5t10.5 72.5t31.5 58.5t51.5 39t71.5 14q55 -1 89.5 -31t43.5 -75h51z" />
    <glyph glyph-name="ordfeminine" unicode="&#xaa;" horiz-adv-x="311" 
d="M228 502q0 -22 -9.5 -39.5t-25.5 -30t-37.5 -19t-44.5 -6.5q-12 0 -24 4t-22 12t-16.5 18.5t-6.5 24.5q0 21 12 32.5t32.5 18t48 10t57.5 8.5q8 2 19.5 4.5t14.5 9.5h2v-47zM54 597q1 36 26 53t60 17q18 0 34 -3t28 -10.5t19 -20.5t7 -33q0 -17 -13.5 -22.5t-39.5 -8.5
q-33 -3 -65.5 -7t-58 -14t-41 -29.5t-15.5 -54.5q0 -51 33.5 -73.5t84.5 -22.5q82 0 123 65h2q0 -27 8.5 -41.5t39.5 -14.5q8 0 15 1t12 2v34q-6 -3 -13 -3q-23 0 -25 23v172q0 31 -10.5 50.5t-28.5 30.5t-41.5 15t-47.5 4q-61 0 -99 -25.5t-41 -83.5h47z" />
    <glyph glyph-name="guillemotleft" unicode="&#xab;" horiz-adv-x="426" 
d="M354 119v67l-94 89l94 89v67l-133 -125v-62zM193 119v67l-94 89l94 89v67l-133 -125v-62z" />
    <glyph glyph-name="logicalnot" unicode="&#xac;" horiz-adv-x="600" 
d="M499 111h53v267h-503v-53h450v-214z" />
    <glyph glyph-name="registered" unicode="&#xae;" horiz-adv-x="800" 
d="M400 729q-79 0 -147 -28.5t-118 -79t-78.5 -118.5t-28.5 -146t28.5 -146t78.5 -118.5t118 -79t147 -28.5t147 28.5t118 79t78.5 118.5t28.5 146t-28.5 146t-78.5 118.5t-118 79t-147 28.5zM400 676q67 0 124.5 -25t99.5 -68t66 -101t24 -125t-24 -125t-66 -101t-99.5 -68
t-124.5 -25q-68 0 -125.5 25t-99.5 68t-65.5 101t-23.5 125t23.5 125t65.5 101t99.5 68t125.5 25zM318 333h89l121 -191h62l-128 191q22 4 41.5 12.5t34.5 23t23.5 35t8.5 49.5q0 58 -33.5 88.5t-106.5 30.5h-165v-430h53v191zM318 378v149h97q19 0 37.5 -3t33 -11.5t23 -23
t8.5 -36.5q0 -27 -11 -42.5t-29 -22.5t-41.5 -8.5t-47.5 -1.5h-70z" />
    <glyph glyph-name="macron" unicode="&#xaf;" horiz-adv-x="185" 
d="M257 634v45h-329v-45h329z" />
    <glyph glyph-name="macron" unicode="&#x2c9;" horiz-adv-x="185" 
d="M257 634v45h-329v-45h329z" />
    <glyph glyph-name="degree" unicode="&#xb0;" horiz-adv-x="400" 
d="M56 562q0 -30 11 -56.5t30.5 -46t46 -30.5t56.5 -11t56 11t45.5 30.5t31 46t11.5 56.5t-11.5 56t-31 45.5t-45.5 31t-56 11.5t-56.5 -11.5t-46 -31t-30.5 -45.5t-11 -56zM95 562q0 22 8 41t22.5 33t33.5 22.5t41 8.5t41 -8.5t33 -22.5t22.5 -33t8.5 -41t-8.5 -41
t-22.5 -33.5t-33 -22.5t-41 -8t-41 8t-33.5 22.5t-22.5 33.5t-8 41z" />
    <glyph glyph-name="plusminus" unicode="&#xb1;" horiz-adv-x="600" 
d="M274 323h-224v-53h224v-180h53v180h225v53h-225v180h-53v-180zM49 0h503v53h-503v-53z" />
    <glyph glyph-name="twosuperior" unicode="&#xb2;" horiz-adv-x="333" 
d="M71 553q0 22 5 42.5t17 36.5t31 25.5t46 9.5q21 0 39.5 -5.5t32.5 -16t22.5 -26t8.5 -34.5q0 -26 -10 -44t-29 -36q-29 -27 -66.5 -48t-71 -45.5t-57 -57t-24.5 -80.5h302v39h-248q6 23 22 40.5t36 31.5t40.5 25t37.5 22q22 13 43 28t37 33t25.5 40t9.5 48
q0 64 -41.5 94.5t-104.5 30.5q-78 0 -115 -42t-35 -111h47z" />
    <glyph glyph-name="threesuperior" unicode="&#xb3;" horiz-adv-x="333" 
d="M135 478h35q45 0 77.5 -21t32.5 -63q0 -21 -10 -38t-26 -28.5t-37 -17.5t-42 -6q-53 0 -82.5 30t-27.5 78h-47q-5 -71 39.5 -109t118.5 -38q33 0 62.5 8.5t51 25t34.5 41.5t13 57q0 42 -24.5 69.5t-69.5 33.5v2q37 8 57 33t20 60q0 29 -12 50t-32.5 34.5t-46.5 20
t-54 6.5q-70 0 -108 -39.5t-39 -102.5h47q-1 45 25 74t75 29q39 0 68.5 -18.5t29.5 -57.5q0 -19 -8.5 -33t-22 -23t-30 -13.5t-32.5 -4.5h-35v-39z" />
    <glyph glyph-name="acute" unicode="&#xb4;" horiz-adv-x="185" 
d="M216 729h-78l-105 -141h51z" />
    <glyph glyph-name="mu" unicode="&#xb5;" horiz-adv-x="537" 
d="M478 516h-63v-271q0 -39 -9 -76.5t-28 -66.5t-48.5 -46.5t-69.5 -17.5q-75 0 -105.5 36t-32.5 106v336h-63v-707h64v211q24 -18 54.5 -26.5t62.5 -8.5q58 0 105.5 28t72.5 80h2v-93h58v516z" />
    <glyph glyph-name="mu" unicode="&#x3bc;" horiz-adv-x="537" 
d="M478 516h-63v-271q0 -39 -9 -76.5t-28 -66.5t-48.5 -46.5t-69.5 -17.5q-75 0 -105.5 36t-32.5 106v336h-63v-707h64v211q24 -18 54.5 -26.5t62.5 -8.5q58 0 105.5 28t72.5 80h2v-93h58v516z" />
    <glyph glyph-name="paragraph" unicode="&#xb6;" horiz-adv-x="600" 
d="M273 -177h63v838h120v-838h63v891h-230q-106 0 -164.5 -50.5t-58.5 -145.5q0 -39 16 -73.5t43.5 -60.5t65.5 -41t82 -15v-505z" />
    <glyph glyph-name="periodcentered" unicode="&#xb7;" horiz-adv-x="278" 
d="M139 375q-23 0 -41 -17.5t-18 -40.5q0 -24 17.5 -42t41.5 -18q23 0 41 17.5t18 40.5q0 24 -17.5 42t-41.5 18z" />
    <glyph glyph-name="periodcentered" unicode="&#x2219;" horiz-adv-x="278" 
d="M139 375q-23 0 -41 -17.5t-18 -40.5q0 -24 17.5 -42t41.5 -18q23 0 41 17.5t18 40.5q0 24 -17.5 42t-41.5 18z" />
    <glyph glyph-name="cedilla" unicode="&#xb8;" horiz-adv-x="185" 
d="M91 0l-61 -79l16 -15q16 8 51 8q17 0 30 -10t13 -28q0 -23 -16 -33t-37 -10q-22 0 -44 4.5t-35 9.5l-14 -32q22 -11 46 -16t48 -5q19 0 38.5 5t35.5 15.5t26 26.5t10 39t-11.5 37t-29 20.5t-37.5 7t-38 -2.5l44 58h-35z" />
    <glyph glyph-name="onesuperior" unicode="&#xb9;" horiz-adv-x="333" 
d="M35 584h121v-310h47v423h-40q-5 -26 -15.5 -40.5t-26.5 -21.5t-37.5 -9t-48.5 -3v-39z" />
    <glyph glyph-name="ordmasculine" unicode="&#xba;" horiz-adv-x="334" 
d="M162 368q42 0 74 13t53 36t31.5 54t10.5 66t-10.5 66t-31.5 54t-53 36t-74 13q-39 0 -68.5 -13t-49.5 -36t-30.5 -54t-10.5 -66t10.5 -66t30.5 -54t49.5 -36t68.5 -13zM167 407q-29 0 -51 11.5t-36.5 29.5t-22 41.5t-7.5 47.5t7.5 47.5t22 41.5t36.5 29.5t51 11.5
t51 -11.5t36.5 -29.5t22 -41.5t7.5 -47.5t-7.5 -47.5t-22 -41.5t-36.5 -29.5t-51 -11.5z" />
    <glyph glyph-name="guillemotright" unicode="&#xbb;" horiz-adv-x="426" 
d="M233 119l133 125v62l-133 125v-67l94 -89l-94 -89v-67zM72 119l133 125v62l-133 125v-67l94 -89l-94 -89v-67z" />
    <glyph glyph-name="onequarter" unicode="&#xbc;" horiz-adv-x="834" 
d="M133 -34h48l452 759h-47zM48 584h121v-310h47v423h-40q-5 -26 -15.5 -40.5t-26.5 -21.5t-37.5 -9t-48.5 -3v-39zM642 0h47v100h68v39h-68v284h-44l-213 -284v-39h210v-100zM640 355h2v-216h-164z" />
    <glyph glyph-name="onehalf" unicode="&#xbd;" horiz-adv-x="834" 
d="M133 -34h48l452 759h-47zM48 584h121v-310h47v423h-40q-5 -26 -15.5 -40.5t-26.5 -21.5t-37.5 -9t-48.5 -3v-39zM536 279q0 22 5 42.5t17 36.5t31 25.5t46 9.5q21 0 39.5 -5.5t32.5 -16t22.5 -26t8.5 -34.5q0 -26 -10 -44t-29 -36q-29 -27 -66.5 -48t-71 -45.5t-57 -57
t-24.5 -80.5h302v39h-248q6 23 22 40.5t36 31.5t40.5 25t37.5 22q22 13 43 28t37 33t25.5 40t9.5 48q0 64 -41.5 94.5t-104.5 30.5q-78 0 -115 -42t-35 -111h47z" />
    <glyph glyph-name="threequarters" unicode="&#xbe;" horiz-adv-x="834" 
d="M135 478h35q45 0 77.5 -21t32.5 -63q0 -21 -10 -38t-26 -28.5t-37 -17.5t-42 -6q-53 0 -82.5 30t-27.5 78h-47q-5 -71 39.5 -109t118.5 -38q33 0 62.5 8.5t51 25t34.5 41.5t13 57q0 42 -24.5 69.5t-69.5 33.5v2q37 8 57 33t20 60q0 29 -12 50t-32.5 34.5t-46.5 20
t-54 6.5q-70 0 -108 -39.5t-39 -102.5h47q-1 45 25 74t75 29q39 0 68.5 -18.5t29.5 -57.5q0 -19 -8.5 -33t-22 -23t-30 -13.5t-32.5 -4.5h-35v-39zM173 -34h48l452 759h-47zM642 0h47v100h68v39h-68v284h-44l-213 -284v-39h210v-100zM640 355h2v-216h-164z" />
    <glyph glyph-name="questiondown" unicode="&#xbf;" horiz-adv-x="537" 
d="M421 29q1 -39 -9 -72t-30 -57.5t-50.5 -38.5t-71.5 -14q-29 0 -55 10t-45.5 27.5t-31 42.5t-11.5 55q0 39 18.5 71t46.5 58q31 29 53.5 52t36.5 47.5t20 56t5 77.5h-63q-1 -46 -4 -70t-12 -41.5t-27 -34.5t-50 -49q-38 -36 -62.5 -75t-24.5 -95q0 -44 16 -78t44 -58
t64.5 -36.5t78.5 -12.5q54 0 96.5 16.5t71 47.5t44 74.5t15.5 96.5h-63zM307 516h-84v-106h84v106z" />
    <glyph glyph-name="Agrave" unicode="&#xc0;" horiz-adv-x="630" 
d="M-7 0h73l86 222h325l87 -222h73l-280 714h-76zM316 646l138 -366h-281zM324 771h51l-105 141h-78z" />
    <glyph glyph-name="Aacute" unicode="&#xc1;" horiz-adv-x="630" 
d="M-7 0h73l86 222h325l87 -222h73l-280 714h-76zM316 646l138 -366h-281zM439 912h-78l-105 -141h51z" />
    <glyph glyph-name="Acircumflex" unicode="&#xc2;" horiz-adv-x="630" 
d="M-7 0h73l86 222h325l87 -222h73l-280 714h-76zM316 646l138 -366h-281zM350 912h-69l-114 -141h58l88 102l86 -102h65z" />
    <glyph glyph-name="Atilde" unicode="&#xc3;" horiz-adv-x="630" 
d="M-7 0h73l86 222h325l87 -222h73l-280 714h-76zM316 646l138 -366h-281zM434 891q-6 -20 -17.5 -34t-34.5 -14q-14 0 -28.5 7t-31.5 15t-35 15t-40 7q-20 0 -35.5 -8.5t-26.5 -22t-18 -30.5t-9 -35h39q0 25 15 38t38 13q13 0 28 -8t32 -16t36 -15t39 -7q19 0 34.5 8.5
t26 22t17 30.5t9.5 34h-38z" />
    <glyph glyph-name="Adieresis" unicode="&#xc4;" horiz-adv-x="630" 
d="M-7 0h73l86 222h325l87 -222h73l-280 714h-76zM316 646l138 -366h-281zM438 788v101h-68v-101h68zM261 788v101h-68v-101h68z" />
    <glyph glyph-name="Aring" unicode="&#xc5;" horiz-adv-x="630" 
d="M-7 0h73l86 222h325l87 -222h73l-280 714h-76zM316 646l138 -366h-281zM209 860q0 -22 8.5 -41.5t23 -34t34 -23t41.5 -8.5t41.5 8.5t34 23t23 34t8.5 41.5t-8.5 41.5t-23 34t-34 23t-41.5 8.5t-41.5 -8.5t-34 -23t-23 -34t-8.5 -41.5zM248 860q0 29 19.5 48.5t48.5 19.5
t48.5 -19.5t19.5 -48.5t-19.5 -48.5t-48.5 -19.5t-48.5 19.5t-19.5 48.5z" />
    <glyph glyph-name="AE" unicode="&#xc6;" horiz-adv-x="907" 
d="M513 340h344v58h-344v258h367v58h-513l-374 -714h77l116 226h259v-226h439v58h-371v282zM216 284l189 372h40v-372h-229z" />
    <glyph glyph-name="Ccedilla" unicode="&#xc7;" horiz-adv-x="704" 
d="M604 272q-5 -48 -23 -89.5t-47 -72.5t-69.5 -49t-89.5 -18q-71 0 -122 27t-83.5 71.5t-48 100.5t-15.5 115q0 58 15.5 114.5t48 101t83.5 71.5t122 27q39 0 74.5 -11.5t65 -33.5t50 -54.5t29.5 -73.5h68q-7 56 -33.5 99t-66 72.5t-88 44.5t-99.5 15q-84 0 -147.5 -30.5
t-105.5 -82t-63 -119t-21 -140.5q0 -69 19 -133.5t56.5 -114.5t94 -83t132.5 -39l-51 -66l16 -15q16 8 51 8q17 0 30 -10t13 -28q0 -23 -16 -33t-37 -10q-22 0 -44 4.5t-35 9.5l-14 -32q22 -11 46 -16t48 -5q19 0 38.5 5t35.5 15.5t26 26.5t10 39t-11.5 37t-29 20.5t-37.5 7
t-38 -2.5l33 43h1q63 0 114.5 20t89.5 57.5t62 90.5t31 119h-68z" />
    <glyph glyph-name="Egrave" unicode="&#xc8;" horiz-adv-x="593" 
d="M72 0h498v58h-430v282h398v58h-398v258h425v58h-493v-714zM305 771h51l-105 141h-78z" />
    <glyph glyph-name="Eacute" unicode="&#xc9;" horiz-adv-x="593" 
d="M72 0h498v58h-430v282h398v58h-398v258h425v58h-493v-714zM420 912h-78l-105 -141h51z" />
    <glyph glyph-name="Ecircumflex" unicode="&#xca;" horiz-adv-x="593" 
d="M72 0h498v58h-430v282h398v58h-398v258h425v58h-493v-714zM331 912h-69l-114 -141h58l88 102l86 -102h65z" />
    <glyph glyph-name="Edieresis" unicode="&#xcb;" horiz-adv-x="593" 
d="M72 0h498v58h-430v282h398v58h-398v258h425v58h-493v-714zM419 788v101h-68v-101h68zM242 788v101h-68v-101h68z" />
    <glyph glyph-name="Igrave" unicode="&#xcc;" horiz-adv-x="222" 
d="M77 0h68v714h-68v-714zM120 771h51l-105 141h-78z" />
    <glyph glyph-name="Iacute" unicode="&#xcd;" horiz-adv-x="222" 
d="M77 0h68v714h-68v-714zM235 912h-78l-105 -141h51z" />
    <glyph glyph-name="Icircumflex" unicode="&#xce;" horiz-adv-x="222" 
d="M77 0h68v714h-68v-714zM146 912h-69l-114 -141h58l88 102l86 -102h65z" />
    <glyph glyph-name="Idieresis" unicode="&#xcf;" horiz-adv-x="222" 
d="M77 0h68v714h-68v-714zM234 788v101h-68v-101h68zM57 788v101h-68v-101h68z" />
    <glyph glyph-name="Eth" unicode="&#xd0;" horiz-adv-x="685" 
d="M140 656h145q77 0 132.5 -16.5t91.5 -52.5t53 -93t17 -137t-17 -137t-53 -93t-91.5 -52.5t-132.5 -16.5h-145v290h236v45h-236v263zM72 393h-72v-45h72v-348h247q162 4 245 92t83 265t-83 265t-245 92h-247v-321z" />
    <glyph glyph-name="Ntilde" unicode="&#xd1;" horiz-adv-x="704" 
d="M71 0h68v604h2l416 -604h76v714h-68v-604h-2l-416 604h-76v-714zM471 891q-6 -20 -17.5 -34t-34.5 -14q-14 0 -28.5 7t-31.5 15t-35 15t-40 7q-20 0 -35.5 -8.5t-26.5 -22t-18 -30.5t-9 -35h39q0 25 15 38t38 13q13 0 28 -8t32 -16t36 -15t39 -7q19 0 34.5 8.5t26 22
t17 30.5t9.5 34h-38z" />
    <glyph glyph-name="Ograve" unicode="&#xd2;" horiz-adv-x="741" 
d="M34 357q0 -73 21 -140.5t63 -119t105.5 -82t147.5 -30.5t147 30.5t105 82t63 119t21 140.5t-21 140.5t-63 119t-105 82t-147 30.5t-147.5 -30.5t-105.5 -82t-63 -119t-21 -140.5zM102 357q0 58 15.5 114.5t48 101t83.5 71.5t122 27q70 0 121 -27t83.5 -71.5t48 -101
t15.5 -114.5q0 -59 -15.5 -115t-48 -100.5t-83.5 -71.5t-121 -27q-71 0 -122 27t-83.5 71.5t-48 100.5t-15.5 115zM379 771h51l-105 141h-78z" />
    <glyph glyph-name="Oacute" unicode="&#xd3;" horiz-adv-x="741" 
d="M34 357q0 -73 21 -140.5t63 -119t105.5 -82t147.5 -30.5t147 30.5t105 82t63 119t21 140.5t-21 140.5t-63 119t-105 82t-147 30.5t-147.5 -30.5t-105.5 -82t-63 -119t-21 -140.5zM102 357q0 58 15.5 114.5t48 101t83.5 71.5t122 27q70 0 121 -27t83.5 -71.5t48 -101
t15.5 -114.5q0 -59 -15.5 -115t-48 -100.5t-83.5 -71.5t-121 -27q-71 0 -122 27t-83.5 71.5t-48 100.5t-15.5 115zM494 912h-78l-105 -141h51z" />
    <glyph glyph-name="Ocircumflex" unicode="&#xd4;" horiz-adv-x="741" 
d="M34 357q0 -73 21 -140.5t63 -119t105.5 -82t147.5 -30.5t147 30.5t105 82t63 119t21 140.5t-21 140.5t-63 119t-105 82t-147 30.5t-147.5 -30.5t-105.5 -82t-63 -119t-21 -140.5zM102 357q0 58 15.5 114.5t48 101t83.5 71.5t122 27q70 0 121 -27t83.5 -71.5t48 -101
t15.5 -114.5q0 -59 -15.5 -115t-48 -100.5t-83.5 -71.5t-121 -27q-71 0 -122 27t-83.5 71.5t-48 100.5t-15.5 115zM405 912h-69l-114 -141h58l88 102l86 -102h65z" />
    <glyph glyph-name="Otilde" unicode="&#xd5;" horiz-adv-x="741" 
d="M34 357q0 -73 21 -140.5t63 -119t105.5 -82t147.5 -30.5t147 30.5t105 82t63 119t21 140.5t-21 140.5t-63 119t-105 82t-147 30.5t-147.5 -30.5t-105.5 -82t-63 -119t-21 -140.5zM102 357q0 58 15.5 114.5t48 101t83.5 71.5t122 27q70 0 121 -27t83.5 -71.5t48 -101
t15.5 -114.5q0 -59 -15.5 -115t-48 -100.5t-83.5 -71.5t-121 -27q-71 0 -122 27t-83.5 71.5t-48 100.5t-15.5 115zM489 891q-6 -20 -17.5 -34t-34.5 -14q-14 0 -28.5 7t-31.5 15t-35 15t-40 7q-20 0 -35.5 -8.5t-26.5 -22t-18 -30.5t-9 -35h39q0 25 15 38t38 13q13 0 28 -8
t32 -16t36 -15t39 -7q19 0 34.5 8.5t26 22t17 30.5t9.5 34h-38z" />
    <glyph glyph-name="Odieresis" unicode="&#xd6;" horiz-adv-x="741" 
d="M34 357q0 -73 21 -140.5t63 -119t105.5 -82t147.5 -30.5t147 30.5t105 82t63 119t21 140.5t-21 140.5t-63 119t-105 82t-147 30.5t-147.5 -30.5t-105.5 -82t-63 -119t-21 -140.5zM102 357q0 58 15.5 114.5t48 101t83.5 71.5t122 27q70 0 121 -27t83.5 -71.5t48 -101
t15.5 -114.5q0 -59 -15.5 -115t-48 -100.5t-83.5 -71.5t-121 -27q-71 0 -122 27t-83.5 71.5t-48 100.5t-15.5 115zM493 788v101h-68v-101h68zM316 788v101h-68v-101h68z" />
    <glyph glyph-name="multiply" unicode="&#xd7;" horiz-adv-x="600" 
d="M262 251l-188 -189l37 -37l189 188l189 -188l37 37l-189 189l189 189l-37 37l-189 -189l-189 189l-37 -37z" />
    <glyph glyph-name="Oslash" unicode="&#xd8;" horiz-adv-x="741" 
d="M580 565q31 -43 45 -97t14 -111q0 -59 -15.5 -115t-48 -100.5t-83.5 -71.5t-121 -27q-62 0 -108.5 21t-79.5 58zM160 150q-30 43 -44 96.5t-14 110.5q0 58 15.5 114.5t48 101t83.5 71.5t122 27q62 0 108.5 -21.5t78.5 -56.5zM672 719l-71 -78q-42 41 -99 64.5t-131 23.5
q-84 0 -147.5 -30.5t-105.5 -82t-63 -119t-21 -140.5q0 -72 20 -138t62 -118l-79 -88l27 -25l76 86q42 -42 99 -65.5t132 -23.5q84 0 147 30.5t105 82t63 119t21 140.5t-20 140t-62 118l73 81z" />
    <glyph glyph-name="Ugrave" unicode="&#xd9;" horiz-adv-x="685" 
d="M65 257q0 -55 15.5 -104.5t49 -86.5t86 -59t126.5 -22q75 0 127.5 22t86 59t49 86.5t15.5 104.5v457h-68v-442q0 -62 -14 -105.5t-41 -71t-66.5 -40t-88.5 -12.5t-88 12.5t-66 40t-41 71t-14 105.5v442h-68v-457zM351 771h51l-105 141h-78z" />
    <glyph glyph-name="Uacute" unicode="&#xda;" horiz-adv-x="685" 
d="M65 257q0 -55 15.5 -104.5t49 -86.5t86 -59t126.5 -22q75 0 127.5 22t86 59t49 86.5t15.5 104.5v457h-68v-442q0 -62 -14 -105.5t-41 -71t-66.5 -40t-88.5 -12.5t-88 12.5t-66 40t-41 71t-14 105.5v442h-68v-457zM466 912h-78l-105 -141h51z" />
    <glyph glyph-name="Ucircumflex" unicode="&#xdb;" horiz-adv-x="685" 
d="M65 257q0 -55 15.5 -104.5t49 -86.5t86 -59t126.5 -22q75 0 127.5 22t86 59t49 86.5t15.5 104.5v457h-68v-442q0 -62 -14 -105.5t-41 -71t-66.5 -40t-88.5 -12.5t-88 12.5t-66 40t-41 71t-14 105.5v442h-68v-457zM377 912h-69l-114 -141h58l88 102l86 -102h65z" />
    <glyph glyph-name="Udieresis" unicode="&#xdc;" horiz-adv-x="685" 
d="M65 257q0 -55 15.5 -104.5t49 -86.5t86 -59t126.5 -22q75 0 127.5 22t86 59t49 86.5t15.5 104.5v457h-68v-442q0 -62 -14 -105.5t-41 -71t-66.5 -40t-88.5 -12.5t-88 12.5t-66 40t-41 71t-14 105.5v442h-68v-457zM465 788v101h-68v-101h68zM288 788v101h-68v-101h68z" />
    <glyph glyph-name="Yacute" unicode="&#xdd;" horiz-adv-x="611" 
d="M271 0h68v294l282 420h-81l-234 -362l-235 362h-81l281 -420v-294zM429 912h-78l-105 -141h51z" />
    <glyph glyph-name="Thorn" unicode="&#xde;" horiz-adv-x="630" 
d="M72 0h68v189h249q48 0 87 13.5t67 40t43 64.5t15 86t-15 86t-43 64.5t-67 40t-87 13.5h-249v117h-68v-714zM140 539h234q71 0 115 -36t44 -110t-44 -110t-115 -36h-234v292z" />
    <glyph glyph-name="germandbls" unicode="&#xdf;" horiz-adv-x="537" 
d="M61 0h63v530q0 71 31 108.5t106 37.5q27 0 51 -9t42 -25.5t28.5 -39.5t10.5 -51q0 -39 -14.5 -64t-39 -39.5t-55.5 -20.5t-64 -6v-53q46 0 84.5 -6t66 -23.5t43 -49.5t15.5 -84q0 -43 -14 -73.5t-36.5 -50t-51.5 -28t-60 -8.5q-12 0 -23.5 1t-23.5 3v-55q13 -2 25 -2h25
q48 1 88.5 15.5t70 42.5t46.5 69t17 97q0 34 -9.5 66t-28.5 57.5t-47 42t-64 19.5v2q27 6 48 20t35.5 34t22 44.5t7.5 51.5q0 43 -15.5 75.5t-42.5 55t-62.5 34t-75.5 11.5q-45 0 -81.5 -12t-62.5 -36t-40.5 -60.5t-14.5 -85.5v-535z" />
    <glyph glyph-name="agrave" unicode="&#xe0;" horiz-adv-x="519" 
d="M390 200q0 -38 -14.5 -68t-39 -51t-57.5 -32t-69 -11q-22 0 -43 7t-37 20.5t-25.5 32t-9.5 42.5q0 38 22.5 58.5t57.5 31.5t77.5 16.5t82.5 12.5q13 2 30 7t23 16h2v-82zM117 358q2 63 40.5 91.5t97.5 28.5q28 0 52.5 -4.5t43 -16.5t29 -32.5t10.5 -52.5q0 -21 -5.5 -34
t-15.5 -20t-25.5 -10.5t-34.5 -5.5q-51 -6 -100.5 -12.5t-89 -22.5t-63.5 -46.5t-24 -84.5q0 -39 13.5 -67.5t37 -47t55 -27.5t67.5 -9q37 0 65 7t49.5 20.5t39 33t34.5 44.5h2q0 -20 2.5 -36.5t10.5 -28.5t22.5 -18.5t38.5 -6.5q13 0 21.5 1t19.5 3v53q-10 -4 -20 -4
q-37 0 -37 38v274q0 52 -17 84.5t-44 50.5t-61 24.5t-68 6.5q-89 0 -146.5 -41t-62.5 -132h63zM268 588h51l-105 141h-78z" />
    <glyph glyph-name="aacute" unicode="&#xe1;" horiz-adv-x="519" 
d="M390 200q0 -38 -14.5 -68t-39 -51t-57.5 -32t-69 -11q-22 0 -43 7t-37 20.5t-25.5 32t-9.5 42.5q0 38 22.5 58.5t57.5 31.5t77.5 16.5t82.5 12.5q13 2 30 7t23 16h2v-82zM117 358q2 63 40.5 91.5t97.5 28.5q28 0 52.5 -4.5t43 -16.5t29 -32.5t10.5 -52.5q0 -21 -5.5 -34
t-15.5 -20t-25.5 -10.5t-34.5 -5.5q-51 -6 -100.5 -12.5t-89 -22.5t-63.5 -46.5t-24 -84.5q0 -39 13.5 -67.5t37 -47t55 -27.5t67.5 -9q37 0 65 7t49.5 20.5t39 33t34.5 44.5h2q0 -20 2.5 -36.5t10.5 -28.5t22.5 -18.5t38.5 -6.5q13 0 21.5 1t19.5 3v53q-10 -4 -20 -4
q-37 0 -37 38v274q0 52 -17 84.5t-44 50.5t-61 24.5t-68 6.5q-89 0 -146.5 -41t-62.5 -132h63zM383 729h-78l-105 -141h51z" />
    <glyph glyph-name="acircumflex" unicode="&#xe2;" horiz-adv-x="519" 
d="M390 200q0 -38 -14.5 -68t-39 -51t-57.5 -32t-69 -11q-22 0 -43 7t-37 20.5t-25.5 32t-9.5 42.5q0 38 22.5 58.5t57.5 31.5t77.5 16.5t82.5 12.5q13 2 30 7t23 16h2v-82zM117 358q2 63 40.5 91.5t97.5 28.5q28 0 52.5 -4.5t43 -16.5t29 -32.5t10.5 -52.5q0 -21 -5.5 -34
t-15.5 -20t-25.5 -10.5t-34.5 -5.5q-51 -6 -100.5 -12.5t-89 -22.5t-63.5 -46.5t-24 -84.5q0 -39 13.5 -67.5t37 -47t55 -27.5t67.5 -9q37 0 65 7t49.5 20.5t39 33t34.5 44.5h2q0 -20 2.5 -36.5t10.5 -28.5t22.5 -18.5t38.5 -6.5q13 0 21.5 1t19.5 3v53q-10 -4 -20 -4
q-37 0 -37 38v274q0 52 -17 84.5t-44 50.5t-61 24.5t-68 6.5q-89 0 -146.5 -41t-62.5 -132h63zM294 729h-69l-114 -141h58l88 102l86 -102h65z" />
    <glyph glyph-name="atilde" unicode="&#xe3;" horiz-adv-x="519" 
d="M390 200q0 -38 -14.5 -68t-39 -51t-57.5 -32t-69 -11q-22 0 -43 7t-37 20.5t-25.5 32t-9.5 42.5q0 38 22.5 58.5t57.5 31.5t77.5 16.5t82.5 12.5q13 2 30 7t23 16h2v-82zM117 358q2 63 40.5 91.5t97.5 28.5q28 0 52.5 -4.5t43 -16.5t29 -32.5t10.5 -52.5q0 -21 -5.5 -34
t-15.5 -20t-25.5 -10.5t-34.5 -5.5q-51 -6 -100.5 -12.5t-89 -22.5t-63.5 -46.5t-24 -84.5q0 -39 13.5 -67.5t37 -47t55 -27.5t67.5 -9q37 0 65 7t49.5 20.5t39 33t34.5 44.5h2q0 -20 2.5 -36.5t10.5 -28.5t22.5 -18.5t38.5 -6.5q13 0 21.5 1t19.5 3v53q-10 -4 -20 -4
q-37 0 -37 38v274q0 52 -17 84.5t-44 50.5t-61 24.5t-68 6.5q-89 0 -146.5 -41t-62.5 -132h63zM378 708q-6 -20 -17.5 -34t-34.5 -14q-14 0 -28.5 7t-31.5 15t-35 15t-40 7q-20 0 -35.5 -8.5t-26.5 -22t-18 -30.5t-9 -35h39q0 25 15 38t38 13q13 0 28 -8t32 -16t36 -15
t39 -7q19 0 34.5 8.5t26 22t17 30.5t9.5 34h-38z" />
    <glyph glyph-name="adieresis" unicode="&#xe4;" horiz-adv-x="519" 
d="M390 200q0 -38 -14.5 -68t-39 -51t-57.5 -32t-69 -11q-22 0 -43 7t-37 20.5t-25.5 32t-9.5 42.5q0 38 22.5 58.5t57.5 31.5t77.5 16.5t82.5 12.5q13 2 30 7t23 16h2v-82zM117 358q2 63 40.5 91.5t97.5 28.5q28 0 52.5 -4.5t43 -16.5t29 -32.5t10.5 -52.5q0 -21 -5.5 -34
t-15.5 -20t-25.5 -10.5t-34.5 -5.5q-51 -6 -100.5 -12.5t-89 -22.5t-63.5 -46.5t-24 -84.5q0 -39 13.5 -67.5t37 -47t55 -27.5t67.5 -9q37 0 65 7t49.5 20.5t39 33t34.5 44.5h2q0 -20 2.5 -36.5t10.5 -28.5t22.5 -18.5t38.5 -6.5q13 0 21.5 1t19.5 3v53q-10 -4 -20 -4
q-37 0 -37 38v274q0 52 -17 84.5t-44 50.5t-61 24.5t-68 6.5q-89 0 -146.5 -41t-62.5 -132h63zM382 605v101h-68v-101h68zM205 605v101h-68v-101h68z" />
    <glyph glyph-name="aring" unicode="&#xe5;" horiz-adv-x="519" 
d="M390 200q0 -38 -14.5 -68t-39 -51t-57.5 -32t-69 -11q-22 0 -43 7t-37 20.5t-25.5 32t-9.5 42.5q0 38 22.5 58.5t57.5 31.5t77.5 16.5t82.5 12.5q13 2 30 7t23 16h2v-82zM117 358q2 63 40.5 91.5t97.5 28.5q28 0 52.5 -4.5t43 -16.5t29 -32.5t10.5 -52.5q0 -21 -5.5 -34
t-15.5 -20t-25.5 -10.5t-34.5 -5.5q-51 -6 -100.5 -12.5t-89 -22.5t-63.5 -46.5t-24 -84.5q0 -39 13.5 -67.5t37 -47t55 -27.5t67.5 -9q37 0 65 7t49.5 20.5t39 33t34.5 44.5h2q0 -20 2.5 -36.5t10.5 -28.5t22.5 -18.5t38.5 -6.5q13 0 21.5 1t19.5 3v53q-10 -4 -20 -4
q-37 0 -37 38v274q0 52 -17 84.5t-44 50.5t-61 24.5t-68 6.5q-89 0 -146.5 -41t-62.5 -132h63zM153 677q0 -22 8.5 -41.5t23 -34t34 -23t41.5 -8.5t41.5 8.5t34 23t23 34t8.5 41.5t-8.5 41.5t-23 34t-34 23t-41.5 8.5t-41.5 -8.5t-34 -23t-23 -34t-8.5 -41.5zM192 677
q0 29 19.5 48.5t48.5 19.5t48.5 -19.5t19.5 -48.5t-19.5 -48.5t-48.5 -19.5t-48.5 19.5t-19.5 48.5z" />
    <glyph glyph-name="ae" unicode="&#xe6;" horiz-adv-x="870" 
d="M453 294q-1 36 9.5 69.5t31.5 59t51.5 40.5t69.5 15q37 0 67.5 -15.5t51.5 -41t32.5 -58.5t11.5 -69h-325zM390 200q0 -38 -14.5 -68t-39 -51t-57.5 -32t-69 -11q-22 0 -43 7t-37 20.5t-25.5 32t-9.5 42.5q0 38 22.5 58.5t57.5 31.5t77.5 16.5t82.5 12.5q13 2 30 7t23 16
h2v-82zM841 241q0 56 -11 108.5t-37 93t-68.5 64.5t-106.5 24q-28 0 -56 -6.5t-52 -20t-43.5 -33.5t-29.5 -47h-2q-5 33 -22.5 54t-42 32.5t-53 16t-54.5 4.5q-89 0 -146.5 -41t-62.5 -132h63q2 63 40.5 91.5t97.5 28.5q28 0 52.5 -4.5t43 -16.5t29 -32.5t10.5 -52.5
q0 -21 -5.5 -34t-15.5 -20t-25.5 -10.5t-34.5 -5.5q-51 -6 -100.5 -12.5t-89 -22.5t-63.5 -46.5t-24 -84.5q0 -39 13.5 -67.5t37 -47t55 -27.5t67.5 -9q34 0 69.5 8t66.5 24.5t52.5 41t27.5 56.5h2q23 -65 71.5 -97.5t117.5 -32.5q90 0 147.5 47.5t77.5 134.5h-63
q-14 -61 -51.5 -95t-101.5 -34q-45 0 -78 16t-54 44t-30 65t-6 78h388z" />
    <glyph glyph-name="ccedilla" unicode="&#xe7;" horiz-adv-x="519" 
d="M428 185q-3 -32 -16 -59t-33 -46.5t-46 -30.5t-55 -11q-45 0 -79 19t-56.5 50t-34 70.5t-11.5 80.5t11.5 80.5t34 70.5t56.5 50t79 19q62 0 97.5 -33t48.5 -91h63q-11 89 -68.5 133t-140.5 44q-59 0 -104.5 -22t-76.5 -59t-47 -87t-16 -105q0 -52 14 -98.5t41 -83t67 -60
t92 -29.5l-51 -66l16 -15q16 8 51 8q17 0 30 -10t13 -28q0 -23 -16 -33t-37 -10q-22 0 -44 4.5t-35 9.5l-14 -32q22 -11 46 -16t48 -5q19 0 38.5 5t35.5 15.5t26 26.5t10 39t-11.5 37t-29 20.5t-37.5 7t-38 -2.5l33 43q85 2 140.5 54.5t68.5 145.5h-63z" />
    <glyph glyph-name="egrave" unicode="&#xe8;" horiz-adv-x="519" 
d="M494 241q2 54 -10 106.5t-39.5 93t-71.5 65.5t-106 25t-106 -23.5t-72 -62t-41.5 -87.5t-13.5 -100q0 -55 13.5 -104.5t41.5 -87t72 -59.5t106 -22q98 0 151.5 48.5t73.5 136.5h-63q-15 -59 -54 -95.5t-108 -36.5q-45 0 -77.5 19t-52.5 48t-30 65t-10 71h397zM97 294
q4 35 16.5 68.5t33.5 59t51 41t69 15.5q38 0 68 -15.5t51 -41t32.5 -58.5t12.5 -69h-334zM268 588h51l-105 141h-78z" />
    <glyph glyph-name="eacute" unicode="&#xe9;" horiz-adv-x="519" 
d="M494 241q2 54 -10 106.5t-39.5 93t-71.5 65.5t-106 25t-106 -23.5t-72 -62t-41.5 -87.5t-13.5 -100q0 -55 13.5 -104.5t41.5 -87t72 -59.5t106 -22q98 0 151.5 48.5t73.5 136.5h-63q-15 -59 -54 -95.5t-108 -36.5q-45 0 -77.5 19t-52.5 48t-30 65t-10 71h397zM97 294
q4 35 16.5 68.5t33.5 59t51 41t69 15.5q38 0 68 -15.5t51 -41t32.5 -58.5t12.5 -69h-334zM383 729h-78l-105 -141h51z" />
    <glyph glyph-name="ecircumflex" unicode="&#xea;" horiz-adv-x="519" 
d="M494 241q2 54 -10 106.5t-39.5 93t-71.5 65.5t-106 25t-106 -23.5t-72 -62t-41.5 -87.5t-13.5 -100q0 -55 13.5 -104.5t41.5 -87t72 -59.5t106 -22q98 0 151.5 48.5t73.5 136.5h-63q-15 -59 -54 -95.5t-108 -36.5q-45 0 -77.5 19t-52.5 48t-30 65t-10 71h397zM97 294
q4 35 16.5 68.5t33.5 59t51 41t69 15.5q38 0 68 -15.5t51 -41t32.5 -58.5t12.5 -69h-334zM294 729h-69l-114 -141h58l88 102l86 -102h65z" />
    <glyph glyph-name="edieresis" unicode="&#xeb;" horiz-adv-x="519" 
d="M494 241q2 54 -10 106.5t-39.5 93t-71.5 65.5t-106 25t-106 -23.5t-72 -62t-41.5 -87.5t-13.5 -100q0 -55 13.5 -104.5t41.5 -87t72 -59.5t106 -22q98 0 151.5 48.5t73.5 136.5h-63q-15 -59 -54 -95.5t-108 -36.5q-45 0 -77.5 19t-52.5 48t-30 65t-10 71h397zM97 294
q4 35 16.5 68.5t33.5 59t51 41t69 15.5q38 0 68 -15.5t51 -41t32.5 -58.5t12.5 -69h-334zM382 605v101h-68v-101h68zM205 605v101h-68v-101h68z" />
    <glyph glyph-name="igrave" unicode="&#xec;" horiz-adv-x="185" 
d="M124 0v516h-63v-516h63zM101 588h51l-105 141h-78z" />
    <glyph glyph-name="iacute" unicode="&#xed;" horiz-adv-x="185" 
d="M124 0v516h-63v-516h63zM216 729h-78l-105 -141h51z" />
    <glyph glyph-name="icircumflex" unicode="&#xee;" horiz-adv-x="185" 
d="M124 0v516h-63v-516h63zM127 729h-69l-114 -141h58l88 102l86 -102h65z" />
    <glyph glyph-name="idieresis" unicode="&#xef;" horiz-adv-x="185" 
d="M124 0v516h-63v-516h63zM215 605v101h-68v-101h68zM38 605v101h-68v-101h68z" />
    <glyph glyph-name="eth" unicode="&#xf0;" 
d="M276 453q48 0 81.5 -17.5t54.5 -46.5t31 -65.5t10 -73.5q0 -47 -11.5 -85.5t-34 -67t-56 -44t-77.5 -15.5q-47 0 -80.5 17.5t-55 46.5t-31.5 67t-10 79t10 78.5t31.5 65.5t55.5 44.5t82 16.5zM135 596l33 -32l105 59q41 -33 74.5 -71.5t58.5 -85.5h-2q-22 23 -59 31.5
t-74 8.5q-57 0 -101 -20.5t-74.5 -56t-46 -82t-15.5 -98.5q0 -56 14.5 -104t43.5 -83.5t74 -56t105 -20.5q63 0 109 21.5t76 58.5t45 87t15 106q0 65 -15 121.5t-41.5 105t-62 89.5t-77.5 75l109 61l-33 32l-114 -64q-25 19 -51.5 34.5t-52.5 29.5l-36 -35q24 -12 47 -26
t46 -29z" />
    <glyph glyph-name="ntilde" unicode="&#xf1;" horiz-adv-x="537" 
d="M59 0h63v301q1 38 12 70.5t32 56t50.5 37t67.5 13.5t63.5 -12t40.5 -33t21 -49.5t6 -61.5v-322h63v332q0 46 -9 83t-31 62.5t-58.5 39.5t-90.5 14q-27 0 -53 -7.5t-48 -21t-38.5 -33t-25.5 -42.5h-2v89h-63v-516zM387 708q-6 -20 -17.5 -34t-34.5 -14q-14 0 -28.5 7
t-31.5 15t-35 15t-40 7q-20 0 -35.5 -8.5t-26.5 -22t-18 -30.5t-9 -35h39q0 25 15 38t38 13q13 0 28 -8t32 -16t36 -15t39 -7q19 0 34.5 8.5t26 22t17 30.5t9.5 34h-38z" />
    <glyph glyph-name="ograve" unicode="&#xf2;" 
d="M278 531q-59 0 -104.5 -22t-76.5 -59t-47 -87t-16 -105q0 -56 16 -105.5t47 -86.5t76.5 -59t104.5 -22t104.5 22t76.5 59t47 86.5t16 105.5q0 55 -16 105t-47 87t-76.5 59t-104.5 22zM278 478q45 0 79 -19t56.5 -50t34 -70.5t11.5 -80.5t-11.5 -80.5t-34 -70.5t-56.5 -50
t-79 -19t-79 19t-56.5 50t-34 70.5t-11.5 80.5t11.5 80.5t34 70.5t56.5 50t79 19zM287 588h51l-105 141h-78z" />
    <glyph glyph-name="oacute" unicode="&#xf3;" 
d="M278 531q-59 0 -104.5 -22t-76.5 -59t-47 -87t-16 -105q0 -56 16 -105.5t47 -86.5t76.5 -59t104.5 -22t104.5 22t76.5 59t47 86.5t16 105.5q0 55 -16 105t-47 87t-76.5 59t-104.5 22zM278 478q45 0 79 -19t56.5 -50t34 -70.5t11.5 -80.5t-11.5 -80.5t-34 -70.5t-56.5 -50
t-79 -19t-79 19t-56.5 50t-34 70.5t-11.5 80.5t11.5 80.5t34 70.5t56.5 50t79 19zM402 729h-78l-105 -141h51z" />
    <glyph glyph-name="ocircumflex" unicode="&#xf4;" 
d="M278 531q-59 0 -104.5 -22t-76.5 -59t-47 -87t-16 -105q0 -56 16 -105.5t47 -86.5t76.5 -59t104.5 -22t104.5 22t76.5 59t47 86.5t16 105.5q0 55 -16 105t-47 87t-76.5 59t-104.5 22zM278 478q45 0 79 -19t56.5 -50t34 -70.5t11.5 -80.5t-11.5 -80.5t-34 -70.5t-56.5 -50
t-79 -19t-79 19t-56.5 50t-34 70.5t-11.5 80.5t11.5 80.5t34 70.5t56.5 50t79 19zM313 729h-69l-114 -141h58l88 102l86 -102h65z" />
    <glyph glyph-name="otilde" unicode="&#xf5;" 
d="M278 531q-59 0 -104.5 -22t-76.5 -59t-47 -87t-16 -105q0 -56 16 -105.5t47 -86.5t76.5 -59t104.5 -22t104.5 22t76.5 59t47 86.5t16 105.5q0 55 -16 105t-47 87t-76.5 59t-104.5 22zM278 478q45 0 79 -19t56.5 -50t34 -70.5t11.5 -80.5t-11.5 -80.5t-34 -70.5t-56.5 -50
t-79 -19t-79 19t-56.5 50t-34 70.5t-11.5 80.5t11.5 80.5t34 70.5t56.5 50t79 19zM397 708q-6 -20 -17.5 -34t-34.5 -14q-14 0 -28.5 7t-31.5 15t-35 15t-40 7q-20 0 -35.5 -8.5t-26.5 -22t-18 -30.5t-9 -35h39q0 25 15 38t38 13q13 0 28 -8t32 -16t36 -15t39 -7
q19 0 34.5 8.5t26 22t17 30.5t9.5 34h-38z" />
    <glyph glyph-name="odieresis" unicode="&#xf6;" 
d="M278 531q-59 0 -104.5 -22t-76.5 -59t-47 -87t-16 -105q0 -56 16 -105.5t47 -86.5t76.5 -59t104.5 -22t104.5 22t76.5 59t47 86.5t16 105.5q0 55 -16 105t-47 87t-76.5 59t-104.5 22zM278 478q45 0 79 -19t56.5 -50t34 -70.5t11.5 -80.5t-11.5 -80.5t-34 -70.5t-56.5 -50
t-79 -19t-79 19t-56.5 50t-34 70.5t-11.5 80.5t11.5 80.5t34 70.5t56.5 50t79 19zM401 605v101h-68v-101h68zM224 605v101h-68v-101h68z" />
    <glyph glyph-name="divide" unicode="&#xf7;" horiz-adv-x="600" 
d="M552 225v53h-503v-53h503zM244 453q0 -23 17 -39.5t40 -16.5q22 0 38.5 17.5t16.5 38.5q0 23 -16.5 39.5t-39.5 16.5t-39.5 -16.5t-16.5 -39.5zM244 50q0 -23 17 -39.5t40 -16.5q22 0 38.5 17.5t16.5 38.5q0 23 -16.5 39.5t-39.5 16.5t-39.5 -16.5t-16.5 -39.5z" />
    <glyph glyph-name="oslash" unicode="&#xf8;" 
d="M133 123q-19 30 -27.5 64.5t-8.5 70.5q0 41 11.5 80.5t34 70.5t56.5 50t79 19q42 0 74 -16.5t54 -43.5zM424 392q18 -29 26.5 -63.5t8.5 -70.5q0 -41 -11.5 -80.5t-34 -70.5t-56.5 -50t-79 -19q-42 0 -74 16.5t-53 42.5zM500 519l-52 -56q-30 32 -73 50t-97 18
q-59 0 -104.5 -22t-76.5 -59t-47 -87t-16 -105q0 -52 14 -99t42 -83l-61 -67l22 -20l59 64q30 -32 72 -50t96 -18q59 0 104.5 22t76.5 59t47 86.5t16 105.5q0 51 -13.5 97.5t-40.5 84.5l54 59z" />
    <glyph glyph-name="ugrave" unicode="&#xf9;" horiz-adv-x="537" 
d="M478 516h-63v-271q0 -39 -9 -76.5t-28 -66.5t-48.5 -46.5t-69.5 -17.5q-75 0 -105.5 36t-32.5 106v336h-63v-335q0 -45 10 -81.5t31.5 -62t56 -39t83.5 -13.5q58 0 105.5 28t72.5 80h2v-93h58v516zM277 588h51l-105 141h-78z" />
    <glyph glyph-name="uacute" unicode="&#xfa;" horiz-adv-x="537" 
d="M478 516h-63v-271q0 -39 -9 -76.5t-28 -66.5t-48.5 -46.5t-69.5 -17.5q-75 0 -105.5 36t-32.5 106v336h-63v-335q0 -45 10 -81.5t31.5 -62t56 -39t83.5 -13.5q58 0 105.5 28t72.5 80h2v-93h58v516zM392 729h-78l-105 -141h51z" />
    <glyph glyph-name="ucircumflex" unicode="&#xfb;" horiz-adv-x="537" 
d="M478 516h-63v-271q0 -39 -9 -76.5t-28 -66.5t-48.5 -46.5t-69.5 -17.5q-75 0 -105.5 36t-32.5 106v336h-63v-335q0 -45 10 -81.5t31.5 -62t56 -39t83.5 -13.5q58 0 105.5 28t72.5 80h2v-93h58v516zM303 729h-69l-114 -141h58l88 102l86 -102h65z" />
    <glyph glyph-name="udieresis" unicode="&#xfc;" horiz-adv-x="537" 
d="M478 516h-63v-271q0 -39 -9 -76.5t-28 -66.5t-48.5 -46.5t-69.5 -17.5q-75 0 -105.5 36t-32.5 106v336h-63v-335q0 -45 10 -81.5t31.5 -62t56 -39t83.5 -13.5q58 0 105.5 28t72.5 80h2v-93h58v516zM391 605v101h-68v-101h68zM214 605v101h-68v-101h68z" />
    <glyph glyph-name="yacute" unicode="&#xfd;" horiz-adv-x="463" 
d="M208 2l-22 -59q-8 -18 -15 -33t-17 -25.5t-23.5 -16.5t-34.5 -6q-11 0 -21.5 1.5t-21.5 3.5v-53q8 -3 18.5 -3.5t29.5 -1.5q30 0 49.5 5.5t34.5 18t26.5 34t25.5 54.5l224 595h-63l-159 -440l-170 440h-67zM355 729h-78l-105 -141h51z" />
    <glyph glyph-name="thorn" unicode="&#xfe;" horiz-adv-x="574" 
d="M473 258q0 -40 -9.5 -79.5t-30 -70.5t-52.5 -50.5t-77 -19.5q-50 0 -84.5 19.5t-56 50.5t-31 70.5t-9.5 79.5t9.5 79.5t31 70.5t56 50.5t84.5 19.5q45 0 77 -19.5t52.5 -50.5t30 -70.5t9.5 -79.5zM60 -191h63v289h2q10 -28 28.5 -49t42.5 -35.5t51.5 -21.5t56.5 -7
q59 0 102.5 22t72.5 59.5t43 87t14 104.5t-14 104.5t-43 87t-72.5 59.5t-102.5 22q-29 0 -56.5 -7.5t-51.5 -21.5t-42.5 -35t-28.5 -49h-2v296h-63v-905z" />
    <glyph glyph-name="ydieresis" unicode="&#xff;" horiz-adv-x="463" 
d="M208 2l-22 -59q-8 -18 -15 -33t-17 -25.5t-23.5 -16.5t-34.5 -6q-11 0 -21.5 1.5t-21.5 3.5v-53q8 -3 18.5 -3.5t29.5 -1.5q30 0 49.5 5.5t34.5 18t26.5 34t25.5 54.5l224 595h-63l-159 -440l-170 440h-67zM354 605v101h-68v-101h68zM177 605v101h-68v-101h68z" />
    <glyph glyph-name="dotlessi" unicode="&#x131;" horiz-adv-x="185" 
d="M124 0v516h-63v-516h63z" />
    <glyph glyph-name="Lslash" unicode="&#x141;" horiz-adv-x="537" 
d="M72 306l-82 -56v-56l82 57v-251h468v58h-400v240l243 167v56l-243 -168v361h-68v-408z" />
    <glyph glyph-name="lslash" unicode="&#x142;" horiz-adv-x="185" 
d="M61 395l-67 -55v-55l67 55v-340h63v392l67 55v55l-67 -55v267h-63v-319z" />
    <glyph glyph-name="Zcaron" unicode="&#x17d;" horiz-adv-x="574" 
d="M37 656h438l-470 -596v-60h556v58h-480l470 596v60h-514v-58zM253 771h69l114 141h-58l-88 -102l-86 102h-65z" />
    <glyph glyph-name="zcaron" unicode="&#x17e;" horiz-adv-x="463" 
d="M432 471v45h-394v-53h314l-337 -412v-51h431v53h-355zM197 588h69l114 141h-58l-88 -102l-86 102h-65z" />
    <glyph glyph-name="caron" unicode="&#x2c7;" horiz-adv-x="185" 
d="M58 588h69l114 141h-58l-88 -102l-86 102h-65z" />
    <glyph glyph-name="breve" unicode="&#x2d8;" horiz-adv-x="185" 
d="M-51 722q5 -61 43 -94t99 -33q60 0 98.5 34t46.5 93h-39q-3 -20 -12.5 -35t-24 -25.5t-32.5 -16t-37 -5.5t-37 5t-32 15.5t-23.5 26t-10.5 35.5h-39z" />
    <glyph glyph-name="dotaccent" unicode="&#x2d9;" horiz-adv-x="185" 
d="M127 605v101h-68v-101h68z" />
    <glyph glyph-name="ring" unicode="&#x2da;" horiz-adv-x="185" 
d="M-14 677q0 -22 8.5 -41.5t23 -34t34 -23t41.5 -8.5t41.5 8.5t34 23t23 34t8.5 41.5t-8.5 41.5t-23 34t-34 23t-41.5 8.5t-41.5 -8.5t-34 -23t-23 -34t-8.5 -41.5zM25 677q0 29 19.5 48.5t48.5 19.5t48.5 -19.5t19.5 -48.5t-19.5 -48.5t-48.5 -19.5t-48.5 19.5t-19.5 48.5
z" />
    <glyph glyph-name="ogonek" unicode="&#x2db;" horiz-adv-x="185" 
d="M151 2q-38 -23 -60.5 -43.5t-34.5 -38t-15.5 -30t-3.5 -19.5q0 -36 21 -59t75 -23q26 0 49.5 15t45.5 52l-29 13q-8 -14 -22 -27.5t-33 -13.5q-17 0 -30.5 11.5t-13.5 35.5q0 13 3.5 26t13.5 28.5t27.5 33t44.5 39.5h-38z" />
    <glyph glyph-name="hungarumlaut" unicode="&#x2dd;" horiz-adv-x="185" 
d="M18 588l126 141h-76l-101 -141h51zM174 588l126 141h-76l-101 -141h51z" />
    <glyph glyph-name="minus" unicode="&#x2212;" horiz-adv-x="600" 
d="M552 278h-503v-53h503v53z" />
    <glyph glyph-name="fraction" unicode="&#x2215;" horiz-adv-x="167" 
d="M-166 -34h48l452 759h-47z" />
    <glyph glyph-name="fi" unicode="&#xfb01;" horiz-adv-x="444" 
d="M320 0h63v516h-63v-516zM94 0h63v463h102v53h-102v45q0 21 1 39t7.5 31.5t20.5 21.5t40 8q11 0 22 -1.5t24 -3.5v54q-15 2 -27 3t-26 1q-38 0 -62.5 -11t-38.5 -31t-19 -48t-5 -61v-47h-88v-53h88v-463zM320 613h63v101h-63v-101z" />
    <glyph glyph-name="fl" unicode="&#xfb02;" horiz-adv-x="444" 
d="M94 0h63v463h102v53h-102v45q0 21 1 39t7.5 31.5t20.5 21.5t40 8q11 0 22 -1.5t24 -3.5v54q-15 2 -27 3t-26 1q-38 0 -62.5 -11t-38.5 -31t-19 -48t-5 -61v-47h-88v-53h88v-463zM320 0h63v714h-63v-714z" />
    </font>
</defs>
</svg>
